<?xml version="1.0" encoding="UTF-8"?>
<!DOCTYPE svg PUBLIC "-//W3C//DTD SVG 1.1//EN" "http://www.w3.org/Graphics/SVG/1.1/DTD/svg11.dtd">
<!-- Creator: CorelDRAW 2019 (64-Bit) -->
<svg xmlns="http://www.w3.org/2000/svg" xml:space="preserve" width="152.4mm" height="152.4mm" version="1.1" style="shape-rendering:geometricPrecision; text-rendering:geometricPrecision; image-rendering:optimizeQuality; fill-rule:evenodd; clip-rule:evenodd"
viewBox="0 0 152.4 152.4"
 xmlns:xlink="http://www.w3.org/1999/xlink"
 xmlns:xodm="http://www.corel.com/coreldraw/odm/2003">
 <defs>
  <style type="text/css">
   <![CDATA[
    .str0 {stroke:blue;stroke-width:0.0762;stroke-miterlimit:2.61313}
    .str2 {stroke:lime;stroke-width:0.0762;stroke-miterlimit:2.61313}
    .str1 {stroke:aqua;stroke-width:0.0762;stroke-miterlimit:2.61313}
    .str3 {stroke:red;stroke-width:0.0762;stroke-miterlimit:2.61313}
    .fil0 {fill:none;fill-rule:nonzero}
   ]]>
  </style>
 </defs>
 <g id="Layer_x0020_1">
  <metadata id="CorelCorpID_0Corel-Layer"/>
  <polygon class="fil0 str0" points="60.1134,45.0301 60.1134,42.3024 58.2127,45.0301 "/>
  <polygon class="fil0 str0" points="60.1134,47.1637 60.1134,45.7159 57.4803,45.7159 57.4803,45.0301 60.2489,41.1015 60.8585,41.1015 60.8585,45.0301 61.6798,45.0301 61.6798,45.7159 60.8585,45.7159 60.8585,47.1637 "/>
  <path class="fil0 str0" d="M51.4351 44.5475l2.4469 0c-0.0325,-0.3697 -0.127,-0.6463 -0.2808,-0.8312 -0.2357,-0.2864 -0.5433,-0.4303 -0.9201,-0.4303 -0.3415,0 -0.6279,0.1143 -0.8608,0.3429 -0.2314,0.2286 -0.3598,0.5348 -0.3852,0.9186z"/>
  <path class="fil0 str0" d="M53.8735 45.7413l0.7705 0.1016c-0.12,0.4473 -0.3443,0.7959 -0.6717,1.0428 -0.3274,0.247 -0.7451,0.3711 -1.2545,0.3711 -0.6406,0 -1.1486,-0.1975 -1.524,-0.5926 -0.3754,-0.3937 -0.563,-0.9483 -0.563,-1.6609 0,-0.7366 0.1891,-1.3095 0.5686,-1.7159 0.3796,-0.4079 0.8721,-0.6111 1.4775,-0.6111 0.5856,0 1.064,0.199 1.4351,0.5984 0.3711,0.3993 0.5574,0.9609 0.5574,1.6848 0,0.0438 -0.0014,0.1101 -0.0042,0.1976l-3.2724 0c0.0282,0.4812 0.1637,0.8509 0.4092,1.1063 0.2441,0.2554 0.5503,0.3838 0.9158,0.3838 0.2724,0 0.5052,-0.0719 0.6971,-0.2159 0.1933,-0.1439 0.3457,-0.3739 0.4586,-0.69z"/>
  <path class="fil0 str0" d="M46.1674 47.1637l0 -4.3942 0.6689 0 0 0.6237c0.3217,-0.4784 0.7874,-0.7169 1.3956,-0.7169 0.2653,0 0.508,0.048 0.7295,0.1426 0.2216,0.0945 0.3881,0.2201 0.4981,0.3739 0.1101,0.1538 0.1877,0.3373 0.2315,0.5489 0.0268,0.1383 0.0409,0.3796 0.0409,0.7239l0 2.6981 -0.7451 0 0 -2.6698c0,-0.3034 -0.0282,-0.5306 -0.0861,-0.6802 -0.0578,-0.1496 -0.1608,-0.2695 -0.3076,-0.3598 -0.1467,-0.0889 -0.3203,-0.1341 -0.5179,-0.1341 -0.3161,0 -0.5884,0.1002 -0.8184,0.302 -0.23,0.2004 -0.3443,0.5828 -0.3443,1.1444l0 2.3975 -0.7451 0z"/>
  <polygon class="fil0 str0" points="44.2864,47.1637 44.2864,42.7695 45.0315,42.7695 45.0315,47.1637 "/>
  <polygon class="fil0 str0" points="44.2864,41.9482 44.2864,41.1015 45.0315,41.1015 45.0315,41.9482 "/>
  <polygon class="fil0 str0" points="39.6368,47.1637 39.6368,41.1015 40.4411,41.1015 40.4411,46.4525 43.4214,46.4525 43.4214,47.1637 "/>
  <path class="fil0 str0" d="M34.3973 47.1637l0 -4.3942 0.6689 0 0 0.6731c0.1707,-0.3119 0.3288,-0.5179 0.4741,-0.6167 0.1454,-0.1002 0.3048,-0.1496 0.4784,-0.1496 0.2512,0 0.5066,0.0791 0.7662,0.2357l-0.2652 0.6872c-0.1807,-0.1016 -0.3613,-0.1524 -0.5419,-0.1524 -0.1623,0 -0.3076,0.0494 -0.436,0.1468 -0.1285,0.0973 -0.2202,0.2328 -0.2752,0.4064 -0.0833,0.2639 -0.1242,0.5531 -0.1242,0.8678l0 2.2959 -0.7451 0z"/>
  <path class="fil0 str0" d="M30.1795 44.968c0,0.5616 0.1228,0.9821 0.3683,1.2601 0.247,0.2794 0.556,0.4191 0.9299,0.4191 0.3697,0 0.6774,-0.1397 0.9243,-0.4205 0.2455,-0.2808 0.3683,-0.7084 0.3683,-1.2827 0,-0.5419 -0.1242,-0.9525 -0.3711,-1.2305 -0.247,-0.2794 -0.5546,-0.4191 -0.9215,-0.4191 -0.3739,0 -0.6829,0.1383 -0.9299,0.4163 -0.2455,0.278 -0.3683,0.6971 -0.3683,1.2573z"/>
  <path class="fil0 str0" d="M29.4175 44.9666c0,-0.8114 0.2258,-1.4125 0.6787,-1.8034 0.3768,-0.3246 0.8383,-0.4869 1.3815,-0.4869 0.6026,0 1.0965,0.1976 1.4803,0.5927 0.3824,0.3937 0.5743,0.9398 0.5743,1.6355 0,0.5644 -0.0846,1.0075 -0.254,1.3307 -0.1693,0.3231 -0.4163,0.5743 -0.7408,0.7535 -0.3232,0.1792 -0.6774,0.2681 -1.0598,0.2681 -0.6152,0 -1.1119,-0.1961 -1.4915,-0.5898 -0.3796,-0.3937 -0.5687,-0.961 -0.5687,-1.7004z"/>
  <path class="fil0 str0" d="M28.9617 46.4991l0.1016 0.6575c-0.2088,0.0438 -0.3965,0.0664 -0.5602,0.0664 -0.2695,0 -0.4783,-0.0424 -0.6279,-0.1284 -0.1482,-0.0861 -0.2526,-0.1976 -0.3133,-0.3373 -0.0607,-0.1397 -0.0903,-0.4332 -0.0903,-0.8805l0 -2.5316 -0.5503 0 0 -0.5757 0.5503 0 0 -1.0866 0.7451 -0.4473 0 1.5339 0.745 0 0 0.5757 -0.745 0 0 2.5739c0,0.2131 0.0127,0.35 0.0395,0.4106 0.0254,0.0607 0.0677,0.1087 0.127,0.1454 0.0593,0.0353 0.1439,0.0536 0.254,0.0536 0.0818,0 0.1905,-0.0099 0.3245,-0.0296z"/>
  <path class="fil0 str0" d="M25.9814 45.555l0.7281 0.1016c-0.0804,0.501 -0.2836,0.8919 -0.6124,1.1755 -0.3288,0.2836 -0.7338,0.4247 -1.2121,0.4247 -0.5997,0 -1.0824,-0.1961 -1.4464,-0.5884 -0.3655,-0.3923 -0.5475,-0.9539 -0.5475,-1.6849 0,-0.4741 0.079,-0.8876 0.2356,-1.2432 0.1567,-0.3542 0.3951,-0.6209 0.7169,-0.7972 0.3203,-0.1779 0.6688,-0.2668 1.047,-0.2668 0.4756,0 0.8664,0.12 1.1684,0.3613 0.3034,0.2413 0.4981,0.5842 0.5828,1.0273l-0.7197 0.1101c-0.0691,-0.295 -0.1905,-0.5165 -0.3668,-0.6661 -0.175,-0.1482 -0.3867,-0.2229 -0.635,-0.2229 -0.3754,0 -0.6802,0.134 -0.9159,0.4021 -0.2342,0.2695 -0.3513,0.6929 -0.3513,1.2743 0,0.5898 0.1129,1.0174 0.3386,1.2841 0.2272,0.2667 0.5222,0.4007 0.8848,0.4007 0.2935,0 0.5376,-0.0889 0.7324,-0.2681 0.1961,-0.1778 0.3203,-0.4529 0.3725,-0.8241z"/>
  <path class="fil0 str0" d="M18.9611 44.5475l2.4469 0c-0.0325,-0.3697 -0.127,-0.6463 -0.2808,-0.8312 -0.2357,-0.2864 -0.5433,-0.4303 -0.9201,-0.4303 -0.3415,0 -0.6279,0.1143 -0.8608,0.3429 -0.2314,0.2286 -0.3598,0.5348 -0.3852,0.9186z"/>
  <path class="fil0 str0" d="M21.3995 45.7413l0.7705 0.1016c-0.12,0.4473 -0.3443,0.7959 -0.6717,1.0428 -0.3274,0.247 -0.7451,0.3711 -1.2545,0.3711 -0.6406,0 -1.1486,-0.1975 -1.524,-0.5926 -0.3754,-0.3937 -0.563,-0.9483 -0.563,-1.6609 0,-0.7366 0.1891,-1.3095 0.5686,-1.7159 0.3796,-0.4079 0.8721,-0.6111 1.4775,-0.6111 0.5856,0 1.064,0.199 1.4351,0.5984 0.3711,0.3993 0.5574,0.9609 0.5574,1.6848 0,0.0438 -0.0014,0.1101 -0.0042,0.1976l-3.2724 0c0.0282,0.4812 0.1637,0.8509 0.4092,1.1063 0.2441,0.2554 0.5503,0.3838 0.9158,0.3838 0.2724,0 0.5052,-0.0719 0.6971,-0.2159 0.1933,-0.1439 0.3457,-0.3739 0.4586,-0.69z"/>
  <path class="fil0 str0" d="M15.0424 47.1637l-2.3424 -6.0622 0.8692 0 1.5748 4.4055c0.1256,0.3528 0.2329,0.683 0.3175,0.9921 0.0932,-0.3316 0.2018,-0.6618 0.326,-0.9921l1.6341 -4.4055 0.8184 0 -2.3636 6.0622 -0.834 0z"/>
  <path class="fil0 str1" d="M57.7343 36.0963l0.7451 -0.1016c0.086,0.4234 0.23,0.7282 0.4346,0.9144 0.2046,0.1863 0.4558,0.2794 0.7535,0.2794 0.3528,0 0.6506,-0.1213 0.8904,-0.364 0.2399,-0.2427 0.3599,-0.5433 0.3599,-0.9017 0,-0.3415 -0.1115,-0.6238 -0.3359,-0.8467 -0.2229,-0.2216 -0.5066,-0.333 -0.8523,-0.333 -0.1411,0 -0.3161,0.0282 -0.5263,0.0832l0.0832 -0.6519c0.0494,0.0056 0.0903,0.0085 0.12,0.0085 0.3189,0 0.6039,-0.0833 0.8593,-0.2484 0.254,-0.1651 0.381,-0.4191 0.381,-0.762 0,-0.2724 -0.0931,-0.4981 -0.2779,-0.6773 -0.1849,-0.1793 -0.4234,-0.2682 -0.7155,-0.2682 -0.2907,0 -0.532,0.0918 -0.7253,0.2752 -0.1933,0.1835 -0.3175,0.4586 -0.3725,0.8255l-0.7451 -0.1355c0.0917,-0.4995 0.2977,-0.8875 0.6209,-1.1627 0.3217,-0.2752 0.7239,-0.4121 1.2037,-0.4121 0.3302,0 0.635,0.0706 0.913,0.2131 0.2794,0.1411 0.4924,0.3345 0.6392,0.5786 0.1482,0.2455 0.2215,0.5052 0.2215,0.7803 0,0.2611 -0.0705,0.4982 -0.2102,0.7126 -0.1411,0.2145 -0.35,0.3853 -0.6251,0.5123 0.3584,0.0818 0.6364,0.254 0.8353,0.515 0.1976,0.2597 0.2964,0.5871 0.2964,0.9779 0,0.5292 -0.1933,0.9794 -0.5786,1.3477 -0.3866,0.3683 -0.8749,0.5517 -1.4647,0.5517 -0.532,0 -0.9737,-0.1595 -1.3251,-0.477 -0.3527,-0.3175 -0.5531,-0.7281 -0.6025,-1.2333z"/>
  <path class="fil0 str1" d="M51.4351 35.0888l2.4469 0c-0.0325,-0.3697 -0.127,-0.6463 -0.2808,-0.8312 -0.2357,-0.2864 -0.5433,-0.4303 -0.9201,-0.4303 -0.3415,0 -0.6279,0.1143 -0.8608,0.3429 -0.2314,0.2286 -0.3598,0.5348 -0.3852,0.9186z"/>
  <path class="fil0 str1" d="M53.8735 36.2826l0.7705 0.1016c-0.12,0.4473 -0.3443,0.7959 -0.6717,1.0428 -0.3274,0.247 -0.7451,0.3711 -1.2545,0.3711 -0.6406,0 -1.1486,-0.1975 -1.524,-0.5926 -0.3754,-0.3937 -0.563,-0.9483 -0.563,-1.6609 0,-0.7366 0.1891,-1.3095 0.5686,-1.7159 0.3796,-0.4079 0.8721,-0.6111 1.4775,-0.6111 0.5856,0 1.064,0.199 1.4351,0.5984 0.3711,0.3993 0.5574,0.9609 0.5574,1.6848 0,0.0438 -0.0014,0.1101 -0.0042,0.1976l-3.2724 0c0.0282,0.4812 0.1637,0.8509 0.4092,1.1063 0.2441,0.2554 0.5503,0.3838 0.9158,0.3838 0.2724,0 0.5052,-0.0719 0.6971,-0.2159 0.1933,-0.1439 0.3457,-0.3739 0.4586,-0.69z"/>
  <path class="fil0 str1" d="M46.1674 37.705l0 -4.3942 0.6689 0 0 0.6237c0.3217,-0.4784 0.7874,-0.7169 1.3956,-0.7169 0.2653,0 0.508,0.048 0.7295,0.1426 0.2216,0.0945 0.3881,0.2201 0.4981,0.3739 0.1101,0.1538 0.1877,0.3373 0.2315,0.5489 0.0268,0.1383 0.0409,0.3796 0.0409,0.7239l0 2.6981 -0.7451 0 0 -2.6698c0,-0.3034 -0.0282,-0.5306 -0.0861,-0.6802 -0.0578,-0.1496 -0.1608,-0.2695 -0.3076,-0.3598 -0.1467,-0.0889 -0.3203,-0.1341 -0.5179,-0.1341 -0.3161,0 -0.5884,0.1002 -0.8184,0.302 -0.23,0.2004 -0.3443,0.5828 -0.3443,1.1444l0 2.3975 -0.7451 0z"/>
  <polygon class="fil0 str1" points="44.2864,37.705 44.2864,33.3108 45.0315,33.3108 45.0315,37.705 "/>
  <polygon class="fil0 str1" points="44.2864,32.4895 44.2864,31.6428 45.0315,31.6428 45.0315,32.4895 "/>
  <polygon class="fil0 str1" points="39.6368,37.705 39.6368,31.6428 40.4411,31.6428 40.4411,36.9938 43.4214,36.9938 43.4214,37.705 "/>
  <path class="fil0 str1" d="M34.3973 37.705l0 -4.3942 0.6689 0 0 0.6731c0.1707,-0.3119 0.3288,-0.5179 0.4741,-0.6167 0.1454,-0.1002 0.3048,-0.1496 0.4784,-0.1496 0.2512,0 0.5066,0.0791 0.7662,0.2357l-0.2652 0.6872c-0.1807,-0.1016 -0.3613,-0.1524 -0.5419,-0.1524 -0.1623,0 -0.3076,0.0494 -0.436,0.1468 -0.1285,0.0973 -0.2202,0.2328 -0.2752,0.4064 -0.0833,0.2639 -0.1242,0.5531 -0.1242,0.8678l0 2.2959 -0.7451 0z"/>
  <path class="fil0 str1" d="M30.1795 35.5093c0,0.5616 0.1228,0.9821 0.3683,1.2601 0.247,0.2794 0.556,0.4191 0.9299,0.4191 0.3697,0 0.6774,-0.1397 0.9243,-0.4205 0.2455,-0.2808 0.3683,-0.7084 0.3683,-1.2827 0,-0.5419 -0.1242,-0.9525 -0.3711,-1.2305 -0.247,-0.2794 -0.5546,-0.4191 -0.9215,-0.4191 -0.3739,0 -0.6829,0.1383 -0.9299,0.4163 -0.2455,0.278 -0.3683,0.6971 -0.3683,1.2573z"/>
  <path class="fil0 str1" d="M29.4175 35.5079c0,-0.8114 0.2258,-1.4125 0.6787,-1.8034 0.3768,-0.3246 0.8383,-0.4869 1.3815,-0.4869 0.6026,0 1.0965,0.1976 1.4803,0.5927 0.3824,0.3937 0.5743,0.9398 0.5743,1.6355 0,0.5644 -0.0846,1.0075 -0.254,1.3307 -0.1693,0.3231 -0.4163,0.5743 -0.7408,0.7535 -0.3232,0.1792 -0.6774,0.2681 -1.0598,0.2681 -0.6152,0 -1.1119,-0.1961 -1.4915,-0.5898 -0.3796,-0.3937 -0.5687,-0.961 -0.5687,-1.7004z"/>
  <path class="fil0 str1" d="M28.9617 37.0404l0.1016 0.6575c-0.2088,0.0438 -0.3965,0.0664 -0.5602,0.0664 -0.2695,0 -0.4783,-0.0424 -0.6279,-0.1284 -0.1482,-0.0861 -0.2526,-0.1976 -0.3133,-0.3373 -0.0607,-0.1397 -0.0903,-0.4332 -0.0903,-0.8805l0 -2.5316 -0.5503 0 0 -0.5757 0.5503 0 0 -1.0866 0.7451 -0.4473 0 1.5339 0.745 0 0 0.5757 -0.745 0 0 2.5739c0,0.2131 0.0127,0.35 0.0395,0.4106 0.0254,0.0607 0.0677,0.1087 0.127,0.1454 0.0593,0.0353 0.1439,0.0536 0.254,0.0536 0.0818,0 0.1905,-0.0099 0.3245,-0.0296z"/>
  <path class="fil0 str1" d="M25.9814 36.0963l0.7281 0.1016c-0.0804,0.501 -0.2836,0.8919 -0.6124,1.1755 -0.3288,0.2836 -0.7338,0.4247 -1.2121,0.4247 -0.5997,0 -1.0824,-0.1961 -1.4464,-0.5884 -0.3655,-0.3923 -0.5475,-0.9539 -0.5475,-1.6849 0,-0.4741 0.079,-0.8876 0.2356,-1.2432 0.1567,-0.3542 0.3951,-0.6209 0.7169,-0.7972 0.3203,-0.1779 0.6688,-0.2668 1.047,-0.2668 0.4756,0 0.8664,0.12 1.1684,0.3613 0.3034,0.2413 0.4981,0.5842 0.5828,1.0273l-0.7197 0.1101c-0.0691,-0.295 -0.1905,-0.5165 -0.3668,-0.6661 -0.175,-0.1482 -0.3867,-0.2229 -0.635,-0.2229 -0.3754,0 -0.6802,0.134 -0.9159,0.4021 -0.2342,0.2695 -0.3513,0.6929 -0.3513,1.2743 0,0.5898 0.1129,1.0174 0.3386,1.2841 0.2272,0.2667 0.5222,0.4007 0.8848,0.4007 0.2935,0 0.5376,-0.0889 0.7324,-0.2681 0.1961,-0.1778 0.3203,-0.4529 0.3725,-0.8241z"/>
  <path class="fil0 str1" d="M18.9611 35.0888l2.4469 0c-0.0325,-0.3697 -0.127,-0.6463 -0.2808,-0.8312 -0.2357,-0.2864 -0.5433,-0.4303 -0.9201,-0.4303 -0.3415,0 -0.6279,0.1143 -0.8608,0.3429 -0.2314,0.2286 -0.3598,0.5348 -0.3852,0.9186z"/>
  <path class="fil0 str1" d="M21.3995 36.2826l0.7705 0.1016c-0.12,0.4473 -0.3443,0.7959 -0.6717,1.0428 -0.3274,0.247 -0.7451,0.3711 -1.2545,0.3711 -0.6406,0 -1.1486,-0.1975 -1.524,-0.5926 -0.3754,-0.3937 -0.563,-0.9483 -0.563,-1.6609 0,-0.7366 0.1891,-1.3095 0.5686,-1.7159 0.3796,-0.4079 0.8721,-0.6111 1.4775,-0.6111 0.5856,0 1.064,0.199 1.4351,0.5984 0.3711,0.3993 0.5574,0.9609 0.5574,1.6848 0,0.0438 -0.0014,0.1101 -0.0042,0.1976l-3.2724 0c0.0282,0.4812 0.1637,0.8509 0.4092,1.1063 0.2441,0.2554 0.5503,0.3838 0.9158,0.3838 0.2724,0 0.5052,-0.0719 0.6971,-0.2159 0.1933,-0.1439 0.3457,-0.3739 0.4586,-0.69z"/>
  <path class="fil0 str1" d="M15.0424 37.705l-2.3424 -6.0622 0.8692 0 1.5748 4.4055c0.1256,0.3528 0.2329,0.683 0.3175,0.9921 0.0932,-0.3316 0.2018,-0.6618 0.326,-0.9921l1.6341 -4.4055 0.8184 0 -2.3636 6.0622 -0.834 0z"/>
  <path class="fil0 str2" d="M61.6375 27.5351l0 0.7112 -4.0133 0c-0.0056,-0.1792 0.024,-0.3514 0.0875,-0.5179 0.103,-0.2723 0.2681,-0.5418 0.4953,-0.8057 0.2272,-0.2639 0.5518,-0.5687 0.9737,-0.9144 0.6562,-0.5405 1.1021,-0.9681 1.3349,-1.2841 0.2343,-0.3161 0.3514,-0.6153 0.3514,-0.8975 0,-0.2949 -0.1059,-0.5433 -0.3175,-0.7465 -0.2117,-0.2018 -0.4883,-0.3034 -0.8283,-0.3034 -0.3599,0 -0.6477,0.1073 -0.8636,0.3217 -0.216,0.2131 -0.3246,0.5095 -0.3274,0.889l-0.762 -0.0762c0.0522,-0.57 0.2497,-1.0047 0.5912,-1.3038 0.3429,-0.2992 0.8015,-0.4488 1.3787,-0.4488 0.5814,0 1.0428,0.1609 1.3815,0.4841 0.34,0.3231 0.5094,0.7239 0.5094,1.2008 0,0.2427 -0.0494,0.4812 -0.1496,0.7155 -0.0988,0.2356 -0.2639,0.4826 -0.4939,0.7422 -0.2314,0.2582 -0.6138,0.6152 -1.1472,1.0668 -0.4473,0.3754 -0.7352,0.6294 -0.8622,0.7634 -0.127,0.1341 -0.2314,0.2681 -0.3147,0.4036l2.9761 0z"/>
  <path class="fil0 str2" d="M51.4351 25.6301l2.4469 0c-0.0325,-0.3697 -0.127,-0.6463 -0.2808,-0.8312 -0.2357,-0.2864 -0.5433,-0.4303 -0.9201,-0.4303 -0.3415,0 -0.6279,0.1143 -0.8608,0.3429 -0.2314,0.2286 -0.3598,0.5348 -0.3852,0.9186z"/>
  <path class="fil0 str2" d="M53.8735 26.8239l0.7705 0.1016c-0.12,0.4473 -0.3443,0.7959 -0.6717,1.0428 -0.3274,0.247 -0.7451,0.3711 -1.2545,0.3711 -0.6406,0 -1.1486,-0.1975 -1.524,-0.5926 -0.3754,-0.3937 -0.563,-0.9483 -0.563,-1.6609 0,-0.7366 0.1891,-1.3095 0.5686,-1.7159 0.3796,-0.4079 0.8721,-0.6111 1.4775,-0.6111 0.5856,0 1.064,0.199 1.4351,0.5984 0.3711,0.3993 0.5574,0.9609 0.5574,1.6848 0,0.0438 -0.0014,0.1101 -0.0042,0.1976l-3.2724 0c0.0282,0.4812 0.1637,0.8509 0.4092,1.1063 0.2441,0.2554 0.5503,0.3838 0.9158,0.3838 0.2724,0 0.5052,-0.0719 0.6971,-0.2159 0.1933,-0.1439 0.3457,-0.3739 0.4586,-0.69z"/>
  <path class="fil0 str2" d="M46.1674 28.2463l0 -4.3942 0.6689 0 0 0.6237c0.3217,-0.4784 0.7874,-0.7169 1.3956,-0.7169 0.2653,0 0.508,0.048 0.7295,0.1426 0.2216,0.0945 0.3881,0.2201 0.4981,0.3739 0.1101,0.1538 0.1877,0.3373 0.2315,0.5489 0.0268,0.1383 0.0409,0.3796 0.0409,0.7239l0 2.6981 -0.7451 0 0 -2.6698c0,-0.3034 -0.0282,-0.5306 -0.0861,-0.6802 -0.0578,-0.1496 -0.1608,-0.2695 -0.3076,-0.3598 -0.1467,-0.0889 -0.3203,-0.1341 -0.5179,-0.1341 -0.3161,0 -0.5884,0.1002 -0.8184,0.302 -0.23,0.2004 -0.3443,0.5828 -0.3443,1.1444l0 2.3975 -0.7451 0z"/>
  <polygon class="fil0 str2" points="44.2864,28.2463 44.2864,23.8521 45.0315,23.8521 45.0315,28.2463 "/>
  <polygon class="fil0 str2" points="44.2864,23.0308 44.2864,22.1841 45.0315,22.1841 45.0315,23.0308 "/>
  <polygon class="fil0 str2" points="39.6368,28.2463 39.6368,22.1841 40.4411,22.1841 40.4411,27.5351 43.4214,27.5351 43.4214,28.2463 "/>
  <path class="fil0 str2" d="M34.3973 28.2463l0 -4.3942 0.6689 0 0 0.6731c0.1707,-0.3119 0.3288,-0.5179 0.4741,-0.6167 0.1454,-0.1002 0.3048,-0.1496 0.4784,-0.1496 0.2512,0 0.5066,0.0791 0.7662,0.2357l-0.2652 0.6872c-0.1807,-0.1016 -0.3613,-0.1524 -0.5419,-0.1524 -0.1623,0 -0.3076,0.0494 -0.436,0.1468 -0.1285,0.0973 -0.2202,0.2328 -0.2752,0.4064 -0.0833,0.2639 -0.1242,0.5531 -0.1242,0.8678l0 2.2959 -0.7451 0z"/>
  <path class="fil0 str2" d="M30.1795 26.0506c0,0.5616 0.1228,0.9821 0.3683,1.2601 0.247,0.2794 0.556,0.4191 0.9299,0.4191 0.3697,0 0.6774,-0.1397 0.9243,-0.4205 0.2455,-0.2808 0.3683,-0.7084 0.3683,-1.2827 0,-0.5419 -0.1242,-0.9525 -0.3711,-1.2305 -0.247,-0.2794 -0.5546,-0.4191 -0.9215,-0.4191 -0.3739,0 -0.6829,0.1383 -0.9299,0.4163 -0.2455,0.278 -0.3683,0.6971 -0.3683,1.2573z"/>
  <path class="fil0 str2" d="M29.4175 26.0492c0,-0.8114 0.2258,-1.4125 0.6787,-1.8034 0.3768,-0.3246 0.8383,-0.4869 1.3815,-0.4869 0.6026,0 1.0965,0.1976 1.4803,0.5927 0.3824,0.3937 0.5743,0.9398 0.5743,1.6355 0,0.5644 -0.0846,1.0075 -0.254,1.3307 -0.1693,0.3231 -0.4163,0.5743 -0.7408,0.7535 -0.3232,0.1792 -0.6774,0.2681 -1.0598,0.2681 -0.6152,0 -1.1119,-0.1961 -1.4915,-0.5898 -0.3796,-0.3937 -0.5687,-0.961 -0.5687,-1.7004z"/>
  <path class="fil0 str2" d="M28.9617 27.5817l0.1016 0.6575c-0.2088,0.0438 -0.3965,0.0664 -0.5602,0.0664 -0.2695,0 -0.4783,-0.0424 -0.6279,-0.1284 -0.1482,-0.0861 -0.2526,-0.1976 -0.3133,-0.3373 -0.0607,-0.1397 -0.0903,-0.4332 -0.0903,-0.8805l0 -2.5316 -0.5503 0 0 -0.5757 0.5503 0 0 -1.0866 0.7451 -0.4473 0 1.5339 0.745 0 0 0.5757 -0.745 0 0 2.5739c0,0.2131 0.0127,0.35 0.0395,0.4106 0.0254,0.0607 0.0677,0.1087 0.127,0.1454 0.0593,0.0353 0.1439,0.0536 0.254,0.0536 0.0818,0 0.1905,-0.0099 0.3245,-0.0296z"/>
  <path class="fil0 str2" d="M25.9814 26.6376l0.7281 0.1016c-0.0804,0.501 -0.2836,0.8919 -0.6124,1.1755 -0.3288,0.2836 -0.7338,0.4247 -1.2121,0.4247 -0.5997,0 -1.0824,-0.1961 -1.4464,-0.5884 -0.3655,-0.3923 -0.5475,-0.9539 -0.5475,-1.6849 0,-0.4741 0.079,-0.8876 0.2356,-1.2432 0.1567,-0.3542 0.3951,-0.6209 0.7169,-0.7972 0.3203,-0.1779 0.6688,-0.2668 1.047,-0.2668 0.4756,0 0.8664,0.12 1.1684,0.3613 0.3034,0.2413 0.4981,0.5842 0.5828,1.0273l-0.7197 0.1101c-0.0691,-0.295 -0.1905,-0.5165 -0.3668,-0.6661 -0.175,-0.1482 -0.3867,-0.2229 -0.635,-0.2229 -0.3754,0 -0.6802,0.134 -0.9159,0.4021 -0.2342,0.2695 -0.3513,0.6929 -0.3513,1.2743 0,0.5898 0.1129,1.0174 0.3386,1.2841 0.2272,0.2667 0.5222,0.4007 0.8848,0.4007 0.2935,0 0.5376,-0.0889 0.7324,-0.2681 0.1961,-0.1778 0.3203,-0.4529 0.3725,-0.8241z"/>
  <path class="fil0 str2" d="M18.9611 25.6301l2.4469 0c-0.0325,-0.3697 -0.127,-0.6463 -0.2808,-0.8312 -0.2357,-0.2864 -0.5433,-0.4303 -0.9201,-0.4303 -0.3415,0 -0.6279,0.1143 -0.8608,0.3429 -0.2314,0.2286 -0.3598,0.5348 -0.3852,0.9186z"/>
  <path class="fil0 str2" d="M21.3995 26.8239l0.7705 0.1016c-0.12,0.4473 -0.3443,0.7959 -0.6717,1.0428 -0.3274,0.247 -0.7451,0.3711 -1.2545,0.3711 -0.6406,0 -1.1486,-0.1975 -1.524,-0.5926 -0.3754,-0.3937 -0.563,-0.9483 -0.563,-1.6609 0,-0.7366 0.1891,-1.3095 0.5686,-1.7159 0.3796,-0.4079 0.8721,-0.6111 1.4775,-0.6111 0.5856,0 1.064,0.199 1.4351,0.5984 0.3711,0.3993 0.5574,0.9609 0.5574,1.6848 0,0.0438 -0.0014,0.1101 -0.0042,0.1976l-3.2724 0c0.0282,0.4812 0.1637,0.8509 0.4092,1.1063 0.2441,0.2554 0.5503,0.3838 0.9158,0.3838 0.2724,0 0.5052,-0.0719 0.6971,-0.2159 0.1933,-0.1439 0.3457,-0.3739 0.4586,-0.69z"/>
  <path class="fil0 str2" d="M15.0424 28.2463l-2.3424 -6.0622 0.8692 0 1.5748 4.4055c0.1256,0.3528 0.2329,0.683 0.3175,0.9921 0.0932,-0.3316 0.2018,-0.6618 0.326,-0.9921l1.6341 -4.4055 0.8184 0 -2.3636 6.0622 -0.834 0z"/>
  <path class="fil0 str3" d="M60.5283 18.7876l-0.7451 0 0 -4.7442c-0.1792,0.1722 -0.4148,0.3429 -0.7055,0.5137 -0.2907,0.1707 -0.5532,0.2991 -0.7846,0.3838l0 -0.7197c0.4163,-0.1947 0.7804,-0.4318 1.0922,-0.7112 0.3119,-0.278 0.5334,-0.5475 0.6632,-0.81l0.4798 0 0 6.0876z"/>
  <path class="fil0 str3" d="M51.4351 16.1714l2.4469 0c-0.0325,-0.3697 -0.127,-0.6463 -0.2808,-0.8312 -0.2357,-0.2864 -0.5433,-0.4303 -0.9201,-0.4303 -0.3415,0 -0.6279,0.1143 -0.8608,0.3429 -0.2314,0.2286 -0.3598,0.5348 -0.3852,0.9186z"/>
  <path class="fil0 str3" d="M53.8735 17.3652l0.7705 0.1016c-0.12,0.4473 -0.3443,0.7959 -0.6717,1.0428 -0.3274,0.247 -0.7451,0.3711 -1.2545,0.3711 -0.6406,0 -1.1486,-0.1975 -1.524,-0.5926 -0.3754,-0.3937 -0.563,-0.9483 -0.563,-1.6609 0,-0.7366 0.1891,-1.3095 0.5686,-1.7159 0.3796,-0.4079 0.8721,-0.6111 1.4775,-0.6111 0.5856,0 1.064,0.199 1.4351,0.5984 0.3711,0.3993 0.5574,0.9609 0.5574,1.6848 0,0.0438 -0.0014,0.1101 -0.0042,0.1976l-3.2724 0c0.0282,0.4812 0.1637,0.8509 0.4092,1.1063 0.2441,0.2554 0.5503,0.3838 0.9158,0.3838 0.2724,0 0.5052,-0.0719 0.6971,-0.2159 0.1933,-0.1439 0.3457,-0.3739 0.4586,-0.69z"/>
  <path class="fil0 str3" d="M46.1674 18.7876l0 -4.3942 0.6689 0 0 0.6237c0.3217,-0.4784 0.7874,-0.7169 1.3956,-0.7169 0.2653,0 0.508,0.048 0.7295,0.1426 0.2216,0.0945 0.3881,0.2201 0.4981,0.3739 0.1101,0.1538 0.1877,0.3373 0.2315,0.5489 0.0268,0.1383 0.0409,0.3796 0.0409,0.7239l0 2.6981 -0.7451 0 0 -2.6698c0,-0.3034 -0.0282,-0.5306 -0.0861,-0.6802 -0.0578,-0.1496 -0.1608,-0.2695 -0.3076,-0.3598 -0.1467,-0.0889 -0.3203,-0.1341 -0.5179,-0.1341 -0.3161,0 -0.5884,0.1002 -0.8184,0.302 -0.23,0.2004 -0.3443,0.5828 -0.3443,1.1444l0 2.3975 -0.7451 0z"/>
  <polygon class="fil0 str3" points="44.2864,18.7876 44.2864,14.3934 45.0315,14.3934 45.0315,18.7876 "/>
  <polygon class="fil0 str3" points="44.2864,13.5721 44.2864,12.7254 45.0315,12.7254 45.0315,13.5721 "/>
  <polygon class="fil0 str3" points="39.6368,18.7876 39.6368,12.7254 40.4411,12.7254 40.4411,18.0764 43.4214,18.0764 43.4214,18.7876 "/>
  <path class="fil0 str3" d="M34.3973 18.7876l0 -4.3942 0.6689 0 0 0.6731c0.1707,-0.3119 0.3288,-0.5179 0.4741,-0.6167 0.1454,-0.1002 0.3048,-0.1496 0.4784,-0.1496 0.2512,0 0.5066,0.0791 0.7662,0.2357l-0.2652 0.6872c-0.1807,-0.1016 -0.3613,-0.1524 -0.5419,-0.1524 -0.1623,0 -0.3076,0.0494 -0.436,0.1468 -0.1285,0.0973 -0.2202,0.2328 -0.2752,0.4064 -0.0833,0.2639 -0.1242,0.5531 -0.1242,0.8678l0 2.2959 -0.7451 0z"/>
  <path class="fil0 str3" d="M30.1795 16.5919c0,0.5616 0.1228,0.9821 0.3683,1.2601 0.247,0.2794 0.556,0.4191 0.9299,0.4191 0.3697,0 0.6774,-0.1397 0.9243,-0.4205 0.2455,-0.2808 0.3683,-0.7084 0.3683,-1.2827 0,-0.5419 -0.1242,-0.9525 -0.3711,-1.2305 -0.247,-0.2794 -0.5546,-0.4191 -0.9215,-0.4191 -0.3739,0 -0.6829,0.1383 -0.9299,0.4163 -0.2455,0.278 -0.3683,0.6971 -0.3683,1.2573z"/>
  <path class="fil0 str3" d="M29.4175 16.5905c0,-0.8114 0.2258,-1.4125 0.6787,-1.8034 0.3768,-0.3246 0.8383,-0.4869 1.3815,-0.4869 0.6026,0 1.0965,0.1976 1.4803,0.5927 0.3824,0.3937 0.5743,0.9398 0.5743,1.6355 0,0.5644 -0.0846,1.0075 -0.254,1.3307 -0.1693,0.3231 -0.4163,0.5743 -0.7408,0.7535 -0.3232,0.1792 -0.6774,0.2681 -1.0598,0.2681 -0.6152,0 -1.1119,-0.1961 -1.4915,-0.5898 -0.3796,-0.3937 -0.5687,-0.961 -0.5687,-1.7004z"/>
  <path class="fil0 str3" d="M28.9617 18.123l0.1016 0.6575c-0.2088,0.0438 -0.3965,0.0664 -0.5602,0.0664 -0.2695,0 -0.4783,-0.0424 -0.6279,-0.1284 -0.1482,-0.0861 -0.2526,-0.1976 -0.3133,-0.3373 -0.0607,-0.1397 -0.0903,-0.4332 -0.0903,-0.8805l0 -2.5316 -0.5503 0 0 -0.5757 0.5503 0 0 -1.0866 0.7451 -0.4473 0 1.5339 0.745 0 0 0.5757 -0.745 0 0 2.5739c0,0.2131 0.0127,0.35 0.0395,0.4106 0.0254,0.0607 0.0677,0.1087 0.127,0.1454 0.0593,0.0353 0.1439,0.0536 0.254,0.0536 0.0818,0 0.1905,-0.0099 0.3245,-0.0296z"/>
  <path class="fil0 str3" d="M25.9814 17.1789l0.7281 0.1016c-0.0804,0.501 -0.2836,0.8919 -0.6124,1.1755 -0.3288,0.2836 -0.7338,0.4247 -1.2121,0.4247 -0.5997,0 -1.0824,-0.1961 -1.4464,-0.5884 -0.3655,-0.3923 -0.5475,-0.9539 -0.5475,-1.6849 0,-0.4741 0.079,-0.8876 0.2356,-1.2432 0.1567,-0.3542 0.3951,-0.6209 0.7169,-0.7972 0.3203,-0.1779 0.6688,-0.2668 1.047,-0.2668 0.4756,0 0.8664,0.12 1.1684,0.3613 0.3034,0.2413 0.4981,0.5842 0.5828,1.0273l-0.7197 0.1101c-0.0691,-0.295 -0.1905,-0.5165 -0.3668,-0.6661 -0.175,-0.1482 -0.3867,-0.2229 -0.635,-0.2229 -0.3754,0 -0.6802,0.134 -0.9159,0.4021 -0.2342,0.2695 -0.3513,0.6929 -0.3513,1.2743 0,0.5898 0.1129,1.0174 0.3386,1.2841 0.2272,0.2667 0.5222,0.4007 0.8848,0.4007 0.2935,0 0.5376,-0.0889 0.7324,-0.2681 0.1961,-0.1778 0.3203,-0.4529 0.3725,-0.8241z"/>
  <path class="fil0 str3" d="M18.9611 16.1714l2.4469 0c-0.0325,-0.3697 -0.127,-0.6463 -0.2808,-0.8312 -0.2357,-0.2864 -0.5433,-0.4303 -0.9201,-0.4303 -0.3415,0 -0.6279,0.1143 -0.8608,0.3429 -0.2314,0.2286 -0.3598,0.5348 -0.3852,0.9186z"/>
  <path class="fil0 str3" d="M21.3995 17.3652l0.7705 0.1016c-0.12,0.4473 -0.3443,0.7959 -0.6717,1.0428 -0.3274,0.247 -0.7451,0.3711 -1.2545,0.3711 -0.6406,0 -1.1486,-0.1975 -1.524,-0.5926 -0.3754,-0.3937 -0.563,-0.9483 -0.563,-1.6609 0,-0.7366 0.1891,-1.3095 0.5686,-1.7159 0.3796,-0.4079 0.8721,-0.6111 1.4775,-0.6111 0.5856,0 1.064,0.199 1.4351,0.5984 0.3711,0.3993 0.5574,0.9609 0.5574,1.6848 0,0.0438 -0.0014,0.1101 -0.0042,0.1976l-3.2724 0c0.0282,0.4812 0.1637,0.8509 0.4092,1.1063 0.2441,0.2554 0.5503,0.3838 0.9158,0.3838 0.2724,0 0.5052,-0.0719 0.6971,-0.2159 0.1933,-0.1439 0.3457,-0.3739 0.4586,-0.69z"/>
  <path class="fil0 str3" d="M15.0424 18.7876l-2.3424 -6.0622 0.8692 0 1.5748 4.4055c0.1256,0.3528 0.2329,0.683 0.3175,0.9921 0.0932,-0.3316 0.2018,-0.6618 0.326,-0.9921l1.6341 -4.4055 0.8184 0 -2.3636 6.0622 -0.834 0z"/>
 </g>
</svg>
