<?xml version="1.0" encoding="UTF-8"?>
<svg id="Layer_1" data-name="Layer 1" xmlns="http://www.w3.org/2000/svg" viewBox="0 0 216 216">
  <defs>
    <style>
      .cls-1 {
        fill: blue;
        stroke: aqua;
      }

      .cls-1, .cls-2 {
        stroke-linecap: round;
        stroke-linejoin: round;
        stroke-width: .5px;
      }

      .cls-2 {
        fill: lime;
        stroke: #ff0;
      }
    </style>
  </defs>
  <g>
    <path class="cls-1" d="M20,40.6l6.6-17.18h2.45l7.03,17.18h-2.59l-2-5.2h-7.18l-1.89,5.2h-2.41ZM24.96,33.54h5.82l-1.79-4.76c-.55-1.45-.95-2.63-1.22-3.56-.22,1.1-.53,2.2-.93,3.28l-1.89,5.04Z"/>
    <path class="cls-1" d="M45.7,40.6v-1.57c-.79,1.23-1.95,1.85-3.48,1.85-.99,0-1.9-.27-2.74-.82s-1.48-1.31-1.93-2.29-.69-2.11-.69-3.38.21-2.37.62-3.38,1.04-1.79,1.86-2.33,1.75-.81,2.78-.81c.75,0,1.42.16,2,.47s1.06.73,1.43,1.24v-6.16h2.1v17.18h-1.96ZM39.03,34.38c0,1.59.34,2.79,1.01,3.57s1.46,1.18,2.38,1.18,1.71-.38,2.35-1.13.97-1.9.97-3.45c0-1.7-.33-2.95-.98-3.75s-1.46-1.2-2.43-1.2-1.72.38-2.35,1.15-.94,1.97-.94,3.62Z"/>
    <path class="cls-1" d="M54.43,40.6l-4.73-12.45h2.23l2.67,7.45c.29.8.55,1.64.8,2.51.19-.66.45-1.45.79-2.37l2.77-7.59h2.17l-4.71,12.45h-1.97Z"/>
    <path class="cls-1" d="M71.1,39.06c-.78.66-1.53,1.13-2.26,1.41s-1.5.41-2.33.41c-1.37,0-2.42-.33-3.15-1s-1.1-1.52-1.1-2.56c0-.61.14-1.17.42-1.67s.64-.91,1.09-1.21.96-.54,1.52-.69c.41-.11,1.04-.21,1.88-.32,1.7-.2,2.96-.45,3.76-.73,0-.29.01-.47.01-.55,0-.86-.2-1.46-.6-1.82-.54-.48-1.34-.71-2.4-.71-.99,0-1.72.17-2.2.52s-.82.96-1.05,1.85l-2.06-.28c.19-.88.5-1.6.93-2.14s1.05-.96,1.86-1.25,1.75-.44,2.82-.44,1.93.12,2.59.38,1.15.56,1.46.94.53.86.66,1.44c.07.36.11,1.01.11,1.95v2.81c0,1.96.04,3.2.13,3.72s.27,1.02.53,1.49h-2.2c-.22-.44-.36-.95-.42-1.54ZM70.92,34.35c-.77.31-1.91.58-3.45.8-.87.12-1.48.27-1.84.42s-.64.38-.83.69-.29.63-.29,1c0,.56.21,1.03.64,1.41s1.05.56,1.87.56,1.54-.18,2.17-.53,1.1-.84,1.39-1.46c.23-.48.34-1.18.34-2.11v-.77Z"/>
    <path class="cls-1" d="M76.32,40.6v-12.45h1.9v1.77c.91-1.37,2.23-2.05,3.96-2.05.75,0,1.44.13,2.07.4s1.1.62,1.41,1.06.53.96.66,1.56c.08.39.12,1.07.12,2.05v7.65h-2.11v-7.57c0-.86-.08-1.5-.25-1.93s-.46-.77-.87-1.02-.91-.38-1.47-.38c-.9,0-1.67.29-2.33.86s-.98,1.65-.98,3.25v6.8h-2.11Z"/>
    <path class="cls-1" d="M97.79,36.04l2.07.27c-.23,1.43-.81,2.55-1.74,3.36s-2.08,1.21-3.44,1.21c-1.7,0-3.07-.56-4.11-1.67s-1.55-2.71-1.55-4.79c0-1.34.22-2.52.67-3.53s1.12-1.76,2.03-2.27,1.9-.76,2.97-.76c1.35,0,2.46.34,3.32,1.03s1.41,1.65,1.65,2.91l-2.05.32c-.2-.84-.54-1.46-1.04-1.89s-1.1-.63-1.8-.63c-1.06,0-1.93.38-2.59,1.14s-1,1.97-1,3.62.32,2.89.96,3.64,1.48,1.14,2.51,1.14c.83,0,1.52-.25,2.07-.76s.91-1.29,1.05-2.34Z"/>
    <path class="cls-1" d="M110.19,36.59l2.18.27c-.34,1.27-.98,2.26-1.91,2.96s-2.12,1.05-3.56,1.05c-1.82,0-3.26-.56-4.33-1.68s-1.6-2.69-1.6-4.72.54-3.72,1.62-4.88,2.48-1.73,4.2-1.73,3.02.57,4.08,1.7,1.58,2.73,1.58,4.78c0,.12,0,.31-.01.56h-9.28c.08,1.37.46,2.41,1.16,3.14s1.56,1.09,2.6,1.09c.77,0,1.43-.2,1.98-.61s.98-1.05,1.3-1.95ZM103.26,33.18h6.95c-.09-1.05-.36-1.83-.8-2.36-.67-.81-1.54-1.22-2.61-1.22-.97,0-1.78.32-2.44.97s-1.03,1.52-1.1,2.6Z"/>
    <path class="cls-1" d="M123.09,40.6v-1.57c-.79,1.23-1.95,1.85-3.48,1.85-.99,0-1.9-.27-2.74-.82s-1.48-1.31-1.93-2.29-.69-2.11-.69-3.38.21-2.37.62-3.38,1.04-1.79,1.86-2.33,1.75-.81,2.78-.81c.75,0,1.42.16,2,.47s1.06.73,1.43,1.24v-6.16h2.1v17.18h-1.96ZM116.42,34.38c0,1.59.34,2.79,1.01,3.57s1.46,1.18,2.38,1.18,1.71-.38,2.35-1.13.97-1.9.97-3.45c0-1.7-.33-2.95-.98-3.75s-1.46-1.2-2.43-1.2-1.72.38-2.35,1.15-.94,1.97-.94,3.62Z"/>
    <path class="cls-1" d="M134.14,35.72l2.05-.28c.05,1.31.3,2.21.74,2.7s1.04.73,1.82.73c.57,0,1.06-.13,1.48-.39s.7-.62.86-1.07.23-1.17.23-2.15v-11.84h2.27v11.71c0,1.44-.17,2.55-.52,3.34s-.9,1.39-1.65,1.8-1.64.62-2.65.62c-1.51,0-2.66-.43-3.46-1.3s-1.19-2.16-1.15-3.87Z"/>
    <path class="cls-1" d="M146.25,34.37c0-2.3.64-4.01,1.92-5.12,1.07-.92,2.38-1.38,3.91-1.38,1.71,0,3.11.56,4.2,1.68s1.63,2.67,1.63,4.65c0,1.6-.24,2.86-.72,3.78s-1.18,1.63-2.1,2.14-1.92.76-3.01.76c-1.74,0-3.15-.56-4.22-1.68s-1.61-2.73-1.61-4.83ZM148.42,34.37c0,1.59.35,2.79,1.04,3.58s1.57,1.19,2.62,1.19,1.92-.4,2.61-1.2,1.04-2.01,1.04-3.64c0-1.54-.35-2.71-1.05-3.5s-1.57-1.19-2.61-1.19-1.93.39-2.62,1.18-1.04,1.98-1.04,3.57Z"/>
    <path class="cls-1" d="M162.33,40.6h-1.96v-17.18h2.11v6.13c.89-1.12,2.03-1.68,3.41-1.68.77,0,1.49.15,2.17.46s1.25.74,1.69,1.3.79,1.23,1.04,2.02.38,1.63.38,2.53c0,2.13-.53,3.78-1.58,4.95s-2.32,1.75-3.8,1.75-2.62-.61-3.46-1.84v1.56ZM162.3,34.28c0,1.49.2,2.57.61,3.23.66,1.09,1.56,1.63,2.7,1.63.92,0,1.72-.4,2.39-1.2s1.01-1.99,1.01-3.58-.32-2.82-.97-3.6-1.42-1.16-2.34-1.16-1.72.4-2.39,1.2-1.01,1.96-1.01,3.47Z"/>
  </g>
  <g>
    <path class="cls-2" d="M21.08,60.08l2.14-.19c.1.86.34,1.56.71,2.12s.95,1,1.73,1.34,1.66.51,2.64.51c.87,0,1.63-.13,2.3-.39s1.16-.61,1.48-1.06.49-.94.49-1.47-.16-1.01-.47-1.41-.83-.74-1.55-1.01c-.46-.18-1.48-.46-3.06-.84s-2.68-.74-3.32-1.07c-.82-.43-1.43-.96-1.83-1.6s-.6-1.35-.6-2.14c0-.87.25-1.68.74-2.43s1.21-1.33,2.16-1.72,2-.59,3.15-.59c1.27,0,2.4.21,3.37.62s1.72,1.01,2.24,1.81.8,1.7.84,2.71l-2.18.16c-.12-1.09-.51-1.91-1.19-2.46s-1.67-.83-2.99-.83-2.38.25-3.01.76-.94,1.11-.94,1.82c0,.62.22,1.12.67,1.52.44.4,1.58.81,3.43,1.22s3.12.78,3.8,1.1c1,.46,1.74,1.04,2.21,1.75s.71,1.52.71,2.44-.26,1.78-.79,2.58-1.28,1.44-2.26,1.89-2.08.67-3.31.67c-1.55,0-2.86-.23-3.91-.68s-1.88-1.13-2.47-2.04-.91-1.94-.94-3.09Z"/>
    <path class="cls-2" d="M46.11,61.59l2.18.27c-.34,1.27-.98,2.26-1.91,2.96s-2.12,1.05-3.56,1.05c-1.82,0-3.26-.56-4.33-1.68s-1.6-2.69-1.6-4.72.54-3.72,1.62-4.88,2.48-1.73,4.2-1.73,3.02.57,4.08,1.7,1.58,2.73,1.58,4.78c0,.12,0,.31-.01.56h-9.28c.08,1.37.46,2.41,1.16,3.14s1.56,1.09,2.6,1.09c.77,0,1.43-.2,1.98-.61s.98-1.05,1.3-1.95ZM39.18,58.18h6.95c-.09-1.05-.36-1.83-.8-2.36-.67-.81-1.54-1.22-2.61-1.22-.97,0-1.78.32-2.44.97s-1.03,1.52-1.1,2.6Z"/>
    <path class="cls-2" d="M55.54,63.71l.3,1.86c-.59.12-1.12.19-1.59.19-.77,0-1.36-.12-1.78-.36s-.72-.56-.89-.96-.26-1.22-.26-2.49v-7.16h-1.55v-1.64h1.55v-3.08l2.1-1.27v4.35h2.12v1.64h-2.12v7.28c0,.6.04.99.11,1.16s.2.31.36.41.41.15.72.15c.23,0,.54-.03.93-.08Z"/>
    <path class="cls-2" d="M62.21,63.71l.3,1.86c-.59.12-1.12.19-1.59.19-.77,0-1.36-.12-1.78-.36s-.72-.56-.89-.96-.26-1.22-.26-2.49v-7.16h-1.55v-1.64h1.55v-3.08l2.1-1.27v4.35h2.12v1.64h-2.12v7.28c0,.6.04.99.11,1.16s.2.31.36.41.41.15.72.15c.23,0,.54-.03.93-.08Z"/>
    <path class="cls-2" d="M64.29,50.84v-2.43h2.11v2.43h-2.11ZM64.29,65.6v-12.45h2.11v12.45h-2.11Z"/>
    <path class="cls-2" d="M69.61,65.6v-12.45h1.9v1.77c.91-1.37,2.23-2.05,3.96-2.05.75,0,1.44.13,2.07.4s1.1.62,1.41,1.06.53.96.66,1.56c.08.39.12,1.07.12,2.05v7.65h-2.11v-7.57c0-.86-.08-1.5-.25-1.93s-.46-.77-.87-1.02-.91-.38-1.47-.38c-.9,0-1.67.29-2.33.86s-.98,1.65-.98,3.25v6.8h-2.11Z"/>
    <path class="cls-2" d="M82.57,66.63l2.05.3c.09.63.32,1.09.71,1.38.52.39,1.24.59,2.14.59.98,0,1.73-.2,2.26-.59s.89-.94,1.08-1.64c.11-.43.16-1.33.15-2.71-.92,1.09-2.07,1.63-3.45,1.63-1.71,0-3.04-.62-3.97-1.85s-1.41-2.71-1.41-4.44c0-1.19.21-2.28.64-3.29s1.05-1.78,1.87-2.33,1.78-.82,2.88-.82c1.47,0,2.68.59,3.63,1.78v-1.5h1.95v10.76c0,1.94-.2,3.31-.59,4.12s-1.02,1.45-1.88,1.92-1.91.7-3.16.7c-1.48,0-2.68-.33-3.6-1s-1.36-1.67-1.32-3.02ZM84.31,59.15c0,1.63.32,2.82.97,3.57s1.46,1.12,2.44,1.12,1.78-.37,2.44-1.12.98-1.92.98-3.51-.34-2.67-1.01-3.45-1.49-1.16-2.44-1.16-1.73.38-2.39,1.14-.98,1.89-.98,3.39Z"/>
    <path class="cls-2" d="M95.46,61.88l2.09-.33c.12.84.44,1.48.98,1.92s1.28.67,2.24.67,1.69-.2,2.16-.59.7-.86.7-1.39c0-.48-.21-.85-.62-1.12-.29-.19-1.01-.43-2.16-.71-1.55-.39-2.62-.73-3.22-1.01s-1.05-.68-1.36-1.18-.46-1.06-.46-1.67c0-.55.13-1.07.38-1.54s.6-.87,1.04-1.18c.33-.24.78-.45,1.34-.62s1.17-.25,1.82-.25c.98,0,1.83.14,2.57.42s1.28.66,1.63,1.14.59,1.12.73,1.93l-2.06.28c-.09-.64-.37-1.14-.81-1.5s-1.08-.54-1.9-.54c-.97,0-1.66.16-2.07.48s-.62.7-.62,1.12c0,.27.09.52.26.74.17.23.44.41.81.56.21.08.83.26,1.86.54,1.49.4,2.53.72,3.12.98s1.05.62,1.39,1.11.5,1.09.5,1.8-.21,1.37-.62,1.99-1,1.1-1.78,1.44-1.65.51-2.62.51c-1.62,0-2.85-.34-3.7-1.01s-1.39-1.67-1.62-2.99Z"/>
  </g>
</svg>