<?xml version="1.0" encoding="UTF-8"?>
<svg id="Layer_1" data-name="Layer 1" xmlns="http://www.w3.org/2000/svg" viewBox="0 0 216 216">
  <defs>
    <style>
      .cls-1 {
        fill: blue;
        stroke: aqua;
      }

      .cls-1, .cls-2 {
        stroke-linecap: round;
        stroke-linejoin: round;
        stroke-width: .5px;
      }

      .cls-2 {
        fill: lime;
        stroke: #ff0;
      }
    </style>
  </defs>
  <g>
    <path class="cls-1" d="M20,40.6l6.6-17.18h2.45l7.03,17.18h-2.59l-2-5.2h-7.18l-1.89,5.2h-2.41ZM24.96,33.54h5.82l-1.79-4.76c-.55-1.45-.95-2.63-1.22-3.56-.22,1.1-.53,2.2-.93,3.28l-1.89,5.04Z"/>
    <path class="cls-1" d="M39.57,40.6h-1.96v-17.18h2.11v6.13c.89-1.12,2.03-1.68,3.41-1.68.77,0,1.49.15,2.17.46s1.25.74,1.69,1.3.79,1.23,1.04,2.02.38,1.63.38,2.53c0,2.13-.53,3.78-1.58,4.95s-2.32,1.75-3.8,1.75-2.62-.61-3.46-1.84v1.56ZM39.55,34.28c0,1.49.2,2.57.61,3.23.66,1.09,1.56,1.63,2.7,1.63.92,0,1.72-.4,2.39-1.2s1.01-1.99,1.01-3.58-.32-2.82-.97-3.6-1.42-1.16-2.34-1.16-1.72.4-2.39,1.2-1.01,1.96-1.01,3.47Z"/>
    <path class="cls-1" d="M50.13,36.88l2.09-.33c.12.84.44,1.48.98,1.92s1.28.67,2.24.67,1.69-.2,2.16-.59.7-.86.7-1.39c0-.48-.21-.85-.62-1.12-.29-.19-1.01-.43-2.16-.71-1.55-.39-2.62-.73-3.22-1.01s-1.05-.68-1.36-1.18-.46-1.06-.46-1.67c0-.55.13-1.07.38-1.54s.6-.87,1.04-1.18c.33-.24.78-.45,1.34-.62s1.17-.25,1.82-.25c.98,0,1.83.14,2.57.42s1.28.66,1.63,1.14.59,1.12.73,1.93l-2.06.28c-.09-.64-.37-1.14-.81-1.5s-1.08-.54-1.9-.54c-.97,0-1.66.16-2.07.48s-.62.7-.62,1.12c0,.27.09.52.26.74.17.23.44.41.81.56.21.08.83.26,1.86.54,1.49.4,2.53.72,3.12.98s1.05.62,1.39,1.11.5,1.09.5,1.8-.21,1.37-.62,1.99-1,1.1-1.78,1.44-1.65.51-2.62.51c-1.62,0-2.85-.34-3.7-1.01s-1.39-1.67-1.62-2.99Z"/>
    <path class="cls-1" d="M62.19,34.37c0-2.3.64-4.01,1.92-5.12,1.07-.92,2.38-1.38,3.91-1.38,1.71,0,3.11.56,4.2,1.68s1.63,2.67,1.63,4.65c0,1.6-.24,2.86-.72,3.78s-1.18,1.63-2.1,2.14-1.92.76-3.01.76c-1.74,0-3.15-.56-4.22-1.68s-1.61-2.73-1.61-4.83ZM64.36,34.37c0,1.59.35,2.79,1.04,3.58s1.57,1.19,2.62,1.19,1.92-.4,2.61-1.2,1.04-2.01,1.04-3.64c0-1.54-.35-2.71-1.05-3.5s-1.57-1.19-2.61-1.19-1.93.39-2.62,1.18-1.04,1.98-1.04,3.57Z"/>
    <path class="cls-1" d="M76.27,40.6v-17.18h2.11v17.18h-2.11Z"/>
    <path class="cls-1" d="M89.81,40.6v-1.83c-.97,1.41-2.29,2.11-3.95,2.11-.73,0-1.42-.14-2.06-.42s-1.11-.63-1.42-1.06-.53-.95-.65-1.56c-.09-.41-.13-1.07-.13-1.97v-7.71h2.11v6.9c0,1.1.04,1.84.13,2.23.13.55.41.99.84,1.31s.96.47,1.59.47,1.23-.16,1.78-.49.95-.77,1.18-1.32.35-1.37.35-2.43v-6.67h2.11v12.45h-1.89Z"/>
    <path class="cls-1" d="M99.61,38.71l.3,1.86c-.59.12-1.12.19-1.59.19-.77,0-1.36-.12-1.78-.36s-.72-.56-.89-.96-.26-1.22-.26-2.49v-7.16h-1.55v-1.64h1.55v-3.08l2.1-1.27v4.35h2.12v1.64h-2.12v7.28c0,.6.04.99.11,1.16s.2.31.36.41.41.15.72.15c.23,0,.54-.03.93-.08Z"/>
    <path class="cls-1" d="M110.19,36.59l2.18.27c-.34,1.27-.98,2.26-1.91,2.96s-2.12,1.05-3.56,1.05c-1.82,0-3.26-.56-4.33-1.68s-1.6-2.69-1.6-4.72.54-3.72,1.62-4.88,2.48-1.73,4.2-1.73,3.02.57,4.08,1.7,1.58,2.73,1.58,4.78c0,.12,0,.31-.01.56h-9.28c.08,1.37.46,2.41,1.16,3.14s1.56,1.09,2.6,1.09c.77,0,1.43-.2,1.98-.61s.98-1.05,1.3-1.95ZM103.26,33.18h6.95c-.09-1.05-.36-1.83-.8-2.36-.67-.81-1.54-1.22-2.61-1.22-.97,0-1.78.32-2.44.97s-1.03,1.52-1.1,2.6Z"/>
    <path class="cls-1" d="M133.23,23.42h2.27v9.93c0,1.73-.2,3.1-.59,4.11s-1.1,1.84-2.12,2.48-2.36.96-4.01.96-2.93-.28-3.95-.83-1.75-1.36-2.19-2.41-.66-2.49-.66-4.31v-9.93h2.27v9.91c0,1.49.14,2.59.42,3.3s.75,1.25,1.43,1.63,1.5.57,2.48.57c1.67,0,2.86-.38,3.57-1.14s1.07-2.21,1.07-4.37v-9.91Z"/>
    <path class="cls-1" d="M139.02,40.6v-12.45h1.9v1.77c.91-1.37,2.23-2.05,3.96-2.05.75,0,1.44.13,2.07.4s1.1.62,1.41,1.06.53.96.66,1.56c.08.39.12,1.07.12,2.05v7.65h-2.11v-7.57c0-.86-.08-1.5-.25-1.93s-.46-.77-.87-1.02-.91-.38-1.47-.38c-.9,0-1.67.29-2.33.86s-.98,1.65-.98,3.25v6.8h-2.11Z"/>
    <path class="cls-1" d="M152.38,25.84v-2.43h2.11v2.43h-2.11ZM152.38,40.6v-12.45h2.11v12.45h-2.11Z"/>
    <path class="cls-1" d="M162.3,38.71l.3,1.86c-.59.12-1.12.19-1.59.19-.77,0-1.36-.12-1.78-.36s-.72-.56-.89-.96-.26-1.22-.26-2.49v-7.16h-1.55v-1.64h1.55v-3.08l2.1-1.27v4.35h2.12v1.64h-2.12v7.28c0,.6.04.99.11,1.16s.2.31.36.41.41.15.72.15c.23,0,.54-.03.93-.08Z"/>
    <path class="cls-1" d="M163.52,36.88l2.09-.33c.12.84.44,1.48.98,1.92s1.28.67,2.24.67,1.69-.2,2.16-.59.7-.86.7-1.39c0-.48-.21-.85-.62-1.12-.29-.19-1.01-.43-2.16-.71-1.55-.39-2.62-.73-3.22-1.01s-1.05-.68-1.36-1.18-.46-1.06-.46-1.67c0-.55.13-1.07.38-1.54s.6-.87,1.04-1.18c.33-.24.78-.45,1.34-.62s1.17-.25,1.82-.25c.98,0,1.83.14,2.57.42s1.28.66,1.63,1.14.59,1.12.73,1.93l-2.06.28c-.09-.64-.37-1.14-.81-1.5s-1.08-.54-1.9-.54c-.97,0-1.66.16-2.07.48s-.62.7-.62,1.12c0,.27.09.52.26.74.17.23.44.41.81.56.21.08.83.26,1.86.54,1.49.4,2.53.72,3.12.98s1.05.62,1.39,1.11.5,1.09.5,1.8-.21,1.37-.62,1.99-1,1.1-1.78,1.44-1.65.51-2.62.51c-1.62,0-2.85-.34-3.7-1.01s-1.39-1.67-1.62-2.99Z"/>
    <path class="cls-1" d="M190.39,40.6h-2.11v-13.44c-.51.48-1.17.97-2,1.45s-1.56.85-2.22,1.09v-2.04c1.18-.55,2.21-1.23,3.09-2.02s1.51-1.55,1.88-2.3h1.36v17.25Z"/>
  </g>
  <g>
    <path class="cls-2" d="M20,65.6l6.6-17.18h2.45l7.03,17.18h-2.59l-2-5.2h-7.18l-1.89,5.2h-2.41ZM24.96,58.54h5.82l-1.79-4.76c-.55-1.45-.95-2.63-1.22-3.56-.22,1.1-.53,2.2-.93,3.28l-1.89,5.04Z"/>
    <path class="cls-2" d="M39.57,65.6h-1.96v-17.18h2.11v6.13c.89-1.12,2.03-1.68,3.41-1.68.77,0,1.49.15,2.17.46s1.25.74,1.69,1.3.79,1.23,1.04,2.02.38,1.63.38,2.53c0,2.13-.53,3.78-1.58,4.95s-2.32,1.75-3.8,1.75-2.62-.61-3.46-1.84v1.56ZM39.55,59.28c0,1.49.2,2.57.61,3.23.66,1.09,1.56,1.63,2.7,1.63.92,0,1.72-.4,2.39-1.2s1.01-1.99,1.01-3.58-.32-2.82-.97-3.6-1.42-1.16-2.34-1.16-1.72.4-2.39,1.2-1.01,1.96-1.01,3.47Z"/>
    <path class="cls-2" d="M50.13,61.88l2.09-.33c.12.84.44,1.48.98,1.92s1.28.67,2.24.67,1.69-.2,2.16-.59.7-.86.7-1.39c0-.48-.21-.85-.62-1.12-.29-.19-1.01-.43-2.16-.71-1.55-.39-2.62-.73-3.22-1.01s-1.05-.68-1.36-1.18-.46-1.06-.46-1.67c0-.55.13-1.07.38-1.54s.6-.87,1.04-1.18c.33-.24.78-.45,1.34-.62s1.17-.25,1.82-.25c.98,0,1.83.14,2.57.42s1.28.66,1.63,1.14.59,1.12.73,1.93l-2.06.28c-.09-.64-.37-1.14-.81-1.5s-1.08-.54-1.9-.54c-.97,0-1.66.16-2.07.48s-.62.7-.62,1.12c0,.27.09.52.26.74.17.23.44.41.81.56.21.08.83.26,1.86.54,1.49.4,2.53.72,3.12.98s1.05.62,1.39,1.11.5,1.09.5,1.8-.21,1.37-.62,1.99-1,1.1-1.78,1.44-1.65.51-2.62.51c-1.62,0-2.85-.34-3.7-1.01s-1.39-1.67-1.62-2.99Z"/>
    <path class="cls-2" d="M62.19,59.37c0-2.3.64-4.01,1.92-5.12,1.07-.92,2.38-1.38,3.91-1.38,1.71,0,3.11.56,4.2,1.68s1.63,2.67,1.63,4.65c0,1.6-.24,2.86-.72,3.78s-1.18,1.63-2.1,2.14-1.92.76-3.01.76c-1.74,0-3.15-.56-4.22-1.68s-1.61-2.73-1.61-4.83ZM64.36,59.37c0,1.59.35,2.79,1.04,3.58s1.57,1.19,2.62,1.19,1.92-.4,2.61-1.2,1.04-2.01,1.04-3.64c0-1.54-.35-2.71-1.05-3.5s-1.57-1.19-2.61-1.19-1.93.39-2.62,1.18-1.04,1.98-1.04,3.57Z"/>
    <path class="cls-2" d="M76.27,65.6v-17.18h2.11v17.18h-2.11Z"/>
    <path class="cls-2" d="M89.81,65.6v-1.83c-.97,1.41-2.29,2.11-3.95,2.11-.73,0-1.42-.14-2.06-.42s-1.11-.63-1.42-1.06-.53-.95-.65-1.56c-.09-.41-.13-1.07-.13-1.97v-7.71h2.11v6.9c0,1.1.04,1.84.13,2.23.13.55.41.99.84,1.31s.96.47,1.59.47,1.23-.16,1.78-.49.95-.77,1.18-1.32.35-1.37.35-2.43v-6.67h2.11v12.45h-1.89Z"/>
    <path class="cls-2" d="M99.61,63.71l.3,1.86c-.59.12-1.12.19-1.59.19-.77,0-1.36-.12-1.78-.36s-.72-.56-.89-.96-.26-1.22-.26-2.49v-7.16h-1.55v-1.64h1.55v-3.08l2.1-1.27v4.35h2.12v1.64h-2.12v7.28c0,.6.04.99.11,1.16s.2.31.36.41.41.15.72.15c.23,0,.54-.03.93-.08Z"/>
    <path class="cls-2" d="M110.19,61.59l2.18.27c-.34,1.27-.98,2.26-1.91,2.96s-2.12,1.05-3.56,1.05c-1.82,0-3.26-.56-4.33-1.68s-1.6-2.69-1.6-4.72.54-3.72,1.62-4.88,2.48-1.73,4.2-1.73,3.02.57,4.08,1.7,1.58,2.73,1.58,4.78c0,.12,0,.31-.01.56h-9.28c.08,1.37.46,2.41,1.16,3.14s1.56,1.09,2.6,1.09c.77,0,1.43-.2,1.98-.61s.98-1.05,1.3-1.95ZM103.26,58.18h6.95c-.09-1.05-.36-1.83-.8-2.36-.67-.81-1.54-1.22-2.61-1.22-.97,0-1.78.32-2.44.97s-1.03,1.52-1.1,2.6Z"/>
    <path class="cls-2" d="M133.23,48.42h2.27v9.93c0,1.73-.2,3.1-.59,4.11s-1.1,1.84-2.12,2.48-2.36.96-4.01.96-2.93-.28-3.95-.83-1.75-1.36-2.19-2.41-.66-2.49-.66-4.31v-9.93h2.27v9.91c0,1.49.14,2.59.42,3.3s.75,1.25,1.43,1.63,1.5.57,2.48.57c1.67,0,2.86-.38,3.57-1.14s1.07-2.21,1.07-4.37v-9.91Z"/>
    <path class="cls-2" d="M139.02,65.6v-12.45h1.9v1.77c.91-1.37,2.23-2.05,3.96-2.05.75,0,1.44.13,2.07.4s1.1.62,1.41,1.06.53.96.66,1.56c.08.39.12,1.07.12,2.05v7.65h-2.11v-7.57c0-.86-.08-1.5-.25-1.93s-.46-.77-.87-1.02-.91-.38-1.47-.38c-.9,0-1.67.29-2.33.86s-.98,1.65-.98,3.25v6.8h-2.11Z"/>
    <path class="cls-2" d="M152.38,50.84v-2.43h2.11v2.43h-2.11ZM152.38,65.6v-12.45h2.11v12.45h-2.11Z"/>
    <path class="cls-2" d="M162.3,63.71l.3,1.86c-.59.12-1.12.19-1.59.19-.77,0-1.36-.12-1.78-.36s-.72-.56-.89-.96-.26-1.22-.26-2.49v-7.16h-1.55v-1.64h1.55v-3.08l2.1-1.27v4.35h2.12v1.64h-2.12v7.28c0,.6.04.99.11,1.16s.2.31.36.41.41.15.72.15c.23,0,.54-.03.93-.08Z"/>
    <path class="cls-2" d="M163.52,61.88l2.09-.33c.12.84.44,1.48.98,1.92s1.28.67,2.24.67,1.69-.2,2.16-.59.7-.86.7-1.39c0-.48-.21-.85-.62-1.12-.29-.19-1.01-.43-2.16-.71-1.55-.39-2.62-.73-3.22-1.01s-1.05-.68-1.36-1.18-.46-1.06-.46-1.67c0-.55.13-1.07.38-1.54s.6-.87,1.04-1.18c.33-.24.78-.45,1.34-.62s1.17-.25,1.82-.25c.98,0,1.83.14,2.57.42s1.28.66,1.63,1.14.59,1.12.73,1.93l-2.06.28c-.09-.64-.37-1.14-.81-1.5s-1.08-.54-1.9-.54c-.97,0-1.66.16-2.07.48s-.62.7-.62,1.12c0,.27.09.52.26.74.17.23.44.41.81.56.21.08.83.26,1.86.54,1.49.4,2.53.72,3.12.98s1.05.62,1.39,1.11.5,1.09.5,1.8-.21,1.37-.62,1.99-1,1.1-1.78,1.44-1.65.51-2.62.51c-1.62,0-2.85-.34-3.7-1.01s-1.39-1.67-1.62-2.99Z"/>
    <path class="cls-2" d="M193.53,63.57v2.03h-11.36c-.02-.51.07-1,.25-1.46.29-.77.75-1.54,1.39-2.29s1.56-1.62,2.76-2.6c1.87-1.53,3.13-2.74,3.79-3.64s.98-1.74.98-2.54c0-.84-.3-1.54-.9-2.12s-1.38-.86-2.34-.86c-1.02,0-1.83.3-2.44.91s-.92,1.45-.93,2.53l-2.17-.22c.15-1.62.71-2.85,1.68-3.7s2.27-1.27,3.9-1.27,2.95.46,3.91,1.37,1.44,2.05,1.44,3.4c0,.69-.14,1.36-.42,2.03s-.75,1.36-1.4,2.1-1.74,1.74-3.25,3.02c-1.27,1.06-2.08,1.78-2.44,2.16s-.66.76-.89,1.14h8.43Z"/>
  </g>
</svg>