<?xml version="1.0" encoding="UTF-8"?>
<!DOCTYPE svg PUBLIC "-//W3C//DTD SVG 1.1//EN" "http://www.w3.org/Graphics/SVG/1.1/DTD/svg11.dtd">
<!-- Creator: CorelDRAW 2019 (64-Bit) -->
<svg xmlns="http://www.w3.org/2000/svg" xml:space="preserve" width="152.4mm" height="152.4mm" version="1.1" style="shape-rendering:geometricPrecision; text-rendering:geometricPrecision; image-rendering:optimizeQuality; fill-rule:evenodd; clip-rule:evenodd"
viewBox="0 0 152.4 152.4"
 xmlns:xlink="http://www.w3.org/1999/xlink"
 xmlns:xodm="http://www.corel.com/coreldraw/odm/2003">
 <defs>
  <style type="text/css">
   <![CDATA[
    .str0 {stroke:aqua;stroke-width:0.0762;stroke-miterlimit:2.61313}
    .str1 {stroke:yellow;stroke-width:0.0762;stroke-miterlimit:2.61313}
    .fil1 {fill:none;fill-rule:nonzero}
    .fil0 {fill:blue;fill-rule:nonzero}
    .fil2 {fill:lime;fill-rule:nonzero}
   ]]>
  </style>
 </defs>
 <g id="Layer_x0020_1">
  <metadata id="CorelCorpID_0Corel-Layer"/>
  <path class="fil0" d="M12.7 18.7876l0 -6.0622 1.2023 0 1.4337 4.2912c0.1326,0.3994 0.2286,0.6986 0.2892,0.8975 0.0692,-0.2201 0.1778,-0.5447 0.3246,-0.9722l1.4591 -4.2165 1.0739 0 0 6.0622 -0.7705 0 0 -5.0716 -1.7696 5.0716 -0.7224 0 -1.7498 -5.1647 0 5.1647 -0.7705 0z"/>
  <path id="1" class="fil0" d="M19.6766 13.5721l0 -0.8467 0.7451 0 0 0.8467 -0.7451 0zm0 5.2155l0 -4.3942 0.7451 0 0 4.3942 -0.7451 0z"/>
  <path id="2" class="fil0" d="M21.0496 18.7876l1.6044 -2.2761 -1.4859 -2.1181 0.9158 0 0.6943 1.0372c0.1284,0.1947 0.23,0.3527 0.302,0.4769 0.1256,-0.1764 0.2371,-0.3358 0.3373,-0.4784l0.7309 -1.0357 0.9102 0 -1.4944 2.1181 1.5917 2.2761 -0.9059 0 -0.9087 -1.3547 -0.2075 -0.3259 -1.174 1.6806 -0.9102 0z"/>
  <path id="3" class="fil0" d="M28.7882 17.3652l0.7705 0.1016c-0.12,0.4473 -0.3443,0.7959 -0.6717,1.0428 -0.3274,0.247 -0.7451,0.3711 -1.2545,0.3711 -0.6406,0 -1.1486,-0.1975 -1.524,-0.5926 -0.3754,-0.3937 -0.563,-0.9483 -0.563,-1.6609 0,-0.7366 0.1891,-1.3095 0.5686,-1.7159 0.3796,-0.4079 0.8721,-0.6111 1.4775,-0.6111 0.5856,0 1.064,0.199 1.4351,0.5984 0.3711,0.3993 0.5574,0.9609 0.5574,1.6848 0,0.0438 -0.0014,0.1101 -0.0042,0.1976l-3.2724 0c0.0282,0.4812 0.1637,0.8509 0.4092,1.1063 0.2441,0.2554 0.5503,0.3838 0.9158,0.3838 0.2724,0 0.5052,-0.0719 0.6971,-0.2159 0.1933,-0.1439 0.3457,-0.3739 0.4586,-0.69zm-2.4384 -1.1938l2.4469 0c-0.0325,-0.3697 -0.127,-0.6463 -0.2808,-0.8312 -0.2357,-0.2864 -0.5433,-0.4303 -0.9201,-0.4303 -0.3415,0 -0.6279,0.1143 -0.8608,0.3429 -0.2314,0.2286 -0.3598,0.5348 -0.3852,0.9186z"/>
  <path id="4" class="fil0" d="M33.3362 18.7876l0 -0.5574c-0.2779,0.4332 -0.6872,0.6505 -1.2276,0.6505 -0.35,0 -0.6717,-0.0959 -0.9638,-0.2892 -0.2935,-0.192 -0.5207,-0.4615 -0.683,-0.8058 -0.1609,-0.3457 -0.2413,-0.7422 -0.2413,-1.191 0,-0.4374 0.0734,-0.8339 0.2187,-1.191 0.1468,-0.3556 0.3655,-0.6293 0.6576,-0.8184 0.2907,-0.1905 0.6181,-0.2851 0.9779,-0.2851 0.2653,0 0.501,0.0565 0.707,0.168 0.206,0.1115 0.3739,0.2582 0.5037,0.4374l0 -2.1802 0.7451 0 0 6.0622 -0.6943 0zm-2.3537 -2.1915c0,0.5617 0.1185,0.9808 0.357,1.2588 0.2371,0.2779 0.5179,0.4162 0.841,0.4162 0.326,0 0.6026,-0.1326 0.8312,-0.3979 0.2272,-0.2653 0.3415,-0.6703 0.3415,-1.215 0,-0.5983 -0.1157,-1.0386 -0.3486,-1.3194 -0.2314,-0.2808 -0.5178,-0.4205 -0.8579,-0.4205 -0.3316,0 -0.6082,0.1341 -0.8312,0.4036 -0.2215,0.2695 -0.333,0.6943 -0.333,1.2742z"/>
  <path id="5" class="fil0" d="M37.6373 18.7876l0 -6.0622 1.2023 0 1.4337 4.2912c0.1326,0.3994 0.2286,0.6986 0.2892,0.8975 0.0692,-0.2201 0.1778,-0.5447 0.3246,-0.9722l1.4591 -4.2165 1.0739 0 0 6.0622 -0.7705 0 0 -5.0716 -1.7696 5.0716 -0.7224 0 -1.7498 -5.1647 0 5.1647 -0.7705 0z"/>
  <path id="6" class="fil0" d="M47.4841 18.7876l0 -0.6533c-0.3415,0.4981 -0.8043,0.7464 -1.3899,0.7464 -0.2583,0 -0.4996,-0.0494 -0.7239,-0.1481 -0.2244,-0.1002 -0.3909,-0.2244 -0.4996,-0.374 -0.1086,-0.151 -0.1848,-0.3344 -0.2286,-0.5517 -0.0296,-0.1468 -0.0451,-0.3782 -0.0451,-0.6943l0 -2.7192 0.745 0 0 2.4313c0,0.3881 0.0156,0.6506 0.0452,0.7846 0.0466,0.1962 0.1453,0.3486 0.2977,0.46 0.151,0.1115 0.3373,0.168 0.5603,0.168 0.2229,0 0.4318,-0.0565 0.6265,-0.1708 0.1947,-0.1143 0.333,-0.2709 0.4149,-0.4671 0.0804,-0.1961 0.1213,-0.4826 0.1213,-0.8565l0 -2.3495 0.7451 0 0 4.3942 -0.6689 0z"/>
  <polygon id="7" class="fil0" points="49.3059,18.7876 49.3059,12.7254 50.0509,12.7254 50.0509,18.7876 "/>
  <path id="8" class="fil0" d="M52.8209 18.123l0.1016 0.6575c-0.2088,0.0438 -0.3965,0.0664 -0.5602,0.0664 -0.2695,0 -0.4783,-0.0424 -0.6279,-0.1284 -0.1482,-0.0861 -0.2526,-0.1976 -0.3133,-0.3373 -0.0607,-0.1397 -0.0903,-0.4332 -0.0903,-0.8805l0 -2.5316 -0.5503 0 0 -0.5757 0.5503 0 0 -1.0866 0.7451 -0.4473 0 1.5339 0.745 0 0 0.5757 -0.745 0 0 2.5739c0,0.2131 0.0127,0.35 0.0395,0.4106 0.0254,0.0607 0.0677,0.1087 0.127,0.1454 0.0593,0.0353 0.1439,0.0536 0.254,0.0536 0.0818,0 0.1905,-0.0099 0.3245,-0.0296z"/>
  <path id="9" class="fil0" d="M53.5561 13.5721l0 -0.8467 0.7451 0 0 0.8467 -0.7451 0zm0 5.2155l0 -4.3942 0.7451 0 0 4.3942 -0.7451 0z"/>
  <path id="10" class="fil0" d="M60.3802 18.7876l-0.7451 0 0 -4.7442c-0.1792,0.1722 -0.4148,0.3429 -0.7055,0.5137 -0.2907,0.1707 -0.5532,0.2991 -0.7846,0.3838l0 -0.7197c0.4163,-0.1947 0.7804,-0.4318 1.0922,-0.7112 0.3119,-0.278 0.5334,-0.5475 0.6632,-0.81l0.4798 0 0 6.0876z"/>
  <path id="11" class="fil1 str0" d="M12.7 18.7876l0 -6.0622 1.2023 0 1.4337 4.2912c0.1326,0.3994 0.2286,0.6986 0.2892,0.8975 0.0692,-0.2201 0.1778,-0.5447 0.3246,-0.9722l1.4591 -4.2165 1.0739 0 0 6.0622 -0.7705 0 0 -5.0716 -1.7696 5.0716 -0.7224 0 -1.7498 -5.1647 0 5.1647 -0.7705 0z"/>
  <path id="12" class="fil1 str0" d="M19.6766 13.5721l0 -0.8467 0.7451 0 0 0.8467 -0.7451 0zm0 5.2155l0 -4.3942 0.7451 0 0 4.3942 -0.7451 0z"/>
  <path id="13" class="fil1 str0" d="M21.0496 18.7876l1.6044 -2.2761 -1.4859 -2.1181 0.9158 0 0.6943 1.0372c0.1284,0.1947 0.23,0.3527 0.302,0.4769 0.1256,-0.1764 0.2371,-0.3358 0.3373,-0.4784l0.7309 -1.0357 0.9102 0 -1.4944 2.1181 1.5917 2.2761 -0.9059 0 -0.9087 -1.3547 -0.2075 -0.3259 -1.174 1.6806 -0.9102 0z"/>
  <path id="14" class="fil1 str0" d="M28.7882 17.3652l0.7705 0.1016c-0.12,0.4473 -0.3443,0.7959 -0.6717,1.0428 -0.3274,0.247 -0.7451,0.3711 -1.2545,0.3711 -0.6406,0 -1.1486,-0.1975 -1.524,-0.5926 -0.3754,-0.3937 -0.563,-0.9483 -0.563,-1.6609 0,-0.7366 0.1891,-1.3095 0.5686,-1.7159 0.3796,-0.4079 0.8721,-0.6111 1.4775,-0.6111 0.5856,0 1.064,0.199 1.4351,0.5984 0.3711,0.3993 0.5574,0.9609 0.5574,1.6848 0,0.0438 -0.0014,0.1101 -0.0042,0.1976l-3.2724 0c0.0282,0.4812 0.1637,0.8509 0.4092,1.1063 0.2441,0.2554 0.5503,0.3838 0.9158,0.3838 0.2724,0 0.5052,-0.0719 0.6971,-0.2159 0.1933,-0.1439 0.3457,-0.3739 0.4586,-0.69zm-2.4384 -1.1938l2.4469 0c-0.0325,-0.3697 -0.127,-0.6463 -0.2808,-0.8312 -0.2357,-0.2864 -0.5433,-0.4303 -0.9201,-0.4303 -0.3415,0 -0.6279,0.1143 -0.8608,0.3429 -0.2314,0.2286 -0.3598,0.5348 -0.3852,0.9186z"/>
  <path id="15" class="fil1 str0" d="M33.3362 18.7876l0 -0.5574c-0.2779,0.4332 -0.6872,0.6505 -1.2276,0.6505 -0.35,0 -0.6717,-0.0959 -0.9638,-0.2892 -0.2935,-0.192 -0.5207,-0.4615 -0.683,-0.8058 -0.1609,-0.3457 -0.2413,-0.7422 -0.2413,-1.191 0,-0.4374 0.0734,-0.8339 0.2187,-1.191 0.1468,-0.3556 0.3655,-0.6293 0.6576,-0.8184 0.2907,-0.1905 0.6181,-0.2851 0.9779,-0.2851 0.2653,0 0.501,0.0565 0.707,0.168 0.206,0.1115 0.3739,0.2582 0.5037,0.4374l0 -2.1802 0.7451 0 0 6.0622 -0.6943 0zm-2.3537 -2.1915c0,0.5617 0.1185,0.9808 0.357,1.2588 0.2371,0.2779 0.5179,0.4162 0.841,0.4162 0.326,0 0.6026,-0.1326 0.8312,-0.3979 0.2272,-0.2653 0.3415,-0.6703 0.3415,-1.215 0,-0.5983 -0.1157,-1.0386 -0.3486,-1.3194 -0.2314,-0.2808 -0.5178,-0.4205 -0.8579,-0.4205 -0.3316,0 -0.6082,0.1341 -0.8312,0.4036 -0.2215,0.2695 -0.333,0.6943 -0.333,1.2742z"/>
  <path id="16" class="fil1 str0" d="M37.6373 18.7876l0 -6.0622 1.2023 0 1.4337 4.2912c0.1326,0.3994 0.2286,0.6986 0.2892,0.8975 0.0692,-0.2201 0.1778,-0.5447 0.3246,-0.9722l1.4591 -4.2165 1.0739 0 0 6.0622 -0.7705 0 0 -5.0716 -1.7696 5.0716 -0.7224 0 -1.7498 -5.1647 0 5.1647 -0.7705 0z"/>
  <path id="17" class="fil1 str0" d="M47.4841 18.7876l0 -0.6533c-0.3415,0.4981 -0.8043,0.7464 -1.3899,0.7464 -0.2583,0 -0.4996,-0.0494 -0.7239,-0.1481 -0.2244,-0.1002 -0.3909,-0.2244 -0.4996,-0.374 -0.1086,-0.151 -0.1848,-0.3344 -0.2286,-0.5517 -0.0296,-0.1468 -0.0451,-0.3782 -0.0451,-0.6943l0 -2.7192 0.745 0 0 2.4313c0,0.3881 0.0156,0.6506 0.0452,0.7846 0.0466,0.1962 0.1453,0.3486 0.2977,0.46 0.151,0.1115 0.3373,0.168 0.5603,0.168 0.2229,0 0.4318,-0.0565 0.6265,-0.1708 0.1947,-0.1143 0.333,-0.2709 0.4149,-0.4671 0.0804,-0.1961 0.1213,-0.4826 0.1213,-0.8565l0 -2.3495 0.7451 0 0 4.3942 -0.6689 0z"/>
  <polygon id="18" class="fil1 str0" points="49.3059,18.7876 49.3059,12.7254 50.0509,12.7254 50.0509,18.7876 "/>
  <path id="19" class="fil1 str0" d="M52.8209 18.123l0.1016 0.6575c-0.2088,0.0438 -0.3965,0.0664 -0.5602,0.0664 -0.2695,0 -0.4783,-0.0424 -0.6279,-0.1284 -0.1482,-0.0861 -0.2526,-0.1976 -0.3133,-0.3373 -0.0607,-0.1397 -0.0903,-0.4332 -0.0903,-0.8805l0 -2.5316 -0.5503 0 0 -0.5757 0.5503 0 0 -1.0866 0.7451 -0.4473 0 1.5339 0.745 0 0 0.5757 -0.745 0 0 2.5739c0,0.2131 0.0127,0.35 0.0395,0.4106 0.0254,0.0607 0.0677,0.1087 0.127,0.1454 0.0593,0.0353 0.1439,0.0536 0.254,0.0536 0.0818,0 0.1905,-0.0099 0.3245,-0.0296z"/>
  <path id="20" class="fil1 str0" d="M53.5561 13.5721l0 -0.8467 0.7451 0 0 0.8467 -0.7451 0zm0 5.2155l0 -4.3942 0.7451 0 0 4.3942 -0.7451 0z"/>
  <path id="21" class="fil1 str0" d="M60.3802 18.7876l-0.7451 0 0 -4.7442c-0.1792,0.1722 -0.4148,0.3429 -0.7055,0.5137 -0.2907,0.1707 -0.5532,0.2991 -0.7846,0.3838l0 -0.7197c0.4163,-0.1947 0.7804,-0.4318 1.0922,-0.7112 0.3119,-0.278 0.5334,-0.5475 0.6632,-0.81l0.4798 0 0 6.0876z"/>
  <path class="fil2" d="M12.7 26.5134l0 -6.0622 1.2023 0 1.4337 4.2912c0.1326,0.3994 0.2286,0.6986 0.2892,0.8975 0.0692,-0.2201 0.1778,-0.5447 0.3246,-0.9722l1.4591 -4.2165 1.0739 0 0 6.0622 -0.7705 0 0 -5.0716 -1.7696 5.0716 -0.7224 0 -1.7498 -5.1647 0 5.1647 -0.7705 0z"/>
  <path id="1" class="fil2" d="M19.6766 21.2979l0 -0.8467 0.7451 0 0 0.8467 -0.7451 0zm0 5.2155l0 -4.3942 0.7451 0 0 4.3942 -0.7451 0z"/>
  <path id="2" class="fil2" d="M21.0496 26.5134l1.6044 -2.2761 -1.4859 -2.1181 0.9158 0 0.6943 1.0372c0.1284,0.1947 0.23,0.3527 0.302,0.4769 0.1256,-0.1764 0.2371,-0.3358 0.3373,-0.4784l0.7309 -1.0357 0.9102 0 -1.4944 2.1181 1.5917 2.2761 -0.9059 0 -0.9087 -1.3547 -0.2075 -0.3259 -1.174 1.6806 -0.9102 0z"/>
  <path id="3" class="fil2" d="M28.7882 25.091l0.7705 0.1016c-0.12,0.4473 -0.3443,0.7959 -0.6717,1.0428 -0.3274,0.247 -0.7451,0.3711 -1.2545,0.3711 -0.6406,0 -1.1486,-0.1975 -1.524,-0.5926 -0.3754,-0.3937 -0.563,-0.9483 -0.563,-1.6609 0,-0.7366 0.1891,-1.3095 0.5686,-1.7159 0.3796,-0.4079 0.8721,-0.6111 1.4775,-0.6111 0.5856,0 1.064,0.199 1.4351,0.5984 0.3711,0.3993 0.5574,0.9609 0.5574,1.6848 0,0.0438 -0.0014,0.1101 -0.0042,0.1976l-3.2724 0c0.0282,0.4812 0.1637,0.8509 0.4092,1.1063 0.2441,0.2554 0.5503,0.3838 0.9158,0.3838 0.2724,0 0.5052,-0.0719 0.6971,-0.2159 0.1933,-0.1439 0.3457,-0.3739 0.4586,-0.69zm-2.4384 -1.1938l2.4469 0c-0.0325,-0.3697 -0.127,-0.6463 -0.2808,-0.8312 -0.2357,-0.2864 -0.5433,-0.4303 -0.9201,-0.4303 -0.3415,0 -0.6279,0.1143 -0.8608,0.3429 -0.2314,0.2286 -0.3598,0.5348 -0.3852,0.9186z"/>
  <path id="4" class="fil2" d="M33.3362 26.5134l0 -0.5574c-0.2779,0.4332 -0.6872,0.6505 -1.2276,0.6505 -0.35,0 -0.6717,-0.0959 -0.9638,-0.2892 -0.2935,-0.192 -0.5207,-0.4615 -0.683,-0.8058 -0.1609,-0.3457 -0.2413,-0.7422 -0.2413,-1.191 0,-0.4374 0.0734,-0.8339 0.2187,-1.191 0.1468,-0.3556 0.3655,-0.6293 0.6576,-0.8184 0.2907,-0.1905 0.6181,-0.2851 0.9779,-0.2851 0.2653,0 0.501,0.0565 0.707,0.168 0.206,0.1115 0.3739,0.2582 0.5037,0.4374l0 -2.1802 0.7451 0 0 6.0622 -0.6943 0zm-2.3537 -2.1915c0,0.5617 0.1185,0.9808 0.357,1.2588 0.2371,0.2779 0.5179,0.4162 0.841,0.4162 0.326,0 0.6026,-0.1326 0.8312,-0.3979 0.2272,-0.2653 0.3415,-0.6703 0.3415,-1.215 0,-0.5983 -0.1157,-1.0386 -0.3486,-1.3194 -0.2314,-0.2808 -0.5178,-0.4205 -0.8579,-0.4205 -0.3316,0 -0.6082,0.1341 -0.8312,0.4036 -0.2215,0.2695 -0.333,0.6943 -0.333,1.2742z"/>
  <path id="5" class="fil2" d="M37.6373 26.5134l0 -6.0622 1.2023 0 1.4337 4.2912c0.1326,0.3994 0.2286,0.6986 0.2892,0.8975 0.0692,-0.2201 0.1778,-0.5447 0.3246,-0.9722l1.4591 -4.2165 1.0739 0 0 6.0622 -0.7705 0 0 -5.0716 -1.7696 5.0716 -0.7224 0 -1.7498 -5.1647 0 5.1647 -0.7705 0z"/>
  <path id="6" class="fil2" d="M47.4841 26.5134l0 -0.6533c-0.3415,0.4981 -0.8043,0.7464 -1.3899,0.7464 -0.2583,0 -0.4996,-0.0494 -0.7239,-0.1481 -0.2244,-0.1002 -0.3909,-0.2244 -0.4996,-0.374 -0.1086,-0.151 -0.1848,-0.3344 -0.2286,-0.5517 -0.0296,-0.1468 -0.0451,-0.3782 -0.0451,-0.6943l0 -2.7192 0.745 0 0 2.4313c0,0.3881 0.0156,0.6506 0.0452,0.7846 0.0466,0.1962 0.1453,0.3486 0.2977,0.46 0.151,0.1115 0.3373,0.168 0.5603,0.168 0.2229,0 0.4318,-0.0565 0.6265,-0.1708 0.1947,-0.1143 0.333,-0.2709 0.4149,-0.4671 0.0804,-0.1961 0.1213,-0.4826 0.1213,-0.8565l0 -2.3495 0.7451 0 0 4.3942 -0.6689 0z"/>
  <polygon id="7" class="fil2" points="49.3059,26.5134 49.3059,20.4512 50.0509,20.4512 50.0509,26.5134 "/>
  <path id="8" class="fil2" d="M52.8209 25.8488l0.1016 0.6575c-0.2088,0.0438 -0.3965,0.0664 -0.5602,0.0664 -0.2695,0 -0.4783,-0.0424 -0.6279,-0.1284 -0.1482,-0.0861 -0.2526,-0.1976 -0.3133,-0.3373 -0.0607,-0.1397 -0.0903,-0.4332 -0.0903,-0.8805l0 -2.5316 -0.5503 0 0 -0.5757 0.5503 0 0 -1.0866 0.7451 -0.4473 0 1.5339 0.745 0 0 0.5757 -0.745 0 0 2.5739c0,0.2131 0.0127,0.35 0.0395,0.4106 0.0254,0.0607 0.0677,0.1087 0.127,0.1454 0.0593,0.0353 0.1439,0.0536 0.254,0.0536 0.0818,0 0.1905,-0.0099 0.3245,-0.0296z"/>
  <path id="9" class="fil2" d="M53.5561 21.2979l0 -0.8467 0.7451 0 0 0.8467 -0.7451 0zm0 5.2155l0 -4.3942 0.7451 0 0 4.3942 -0.7451 0z"/>
  <path id="10" class="fil2" d="M61.4894 25.8022l0 0.7112 -4.0133 0c-0.0056,-0.1792 0.024,-0.3514 0.0875,-0.5179 0.103,-0.2723 0.2681,-0.5418 0.4953,-0.8057 0.2272,-0.2639 0.5518,-0.5687 0.9737,-0.9144 0.6562,-0.5405 1.1021,-0.9681 1.3349,-1.2841 0.2343,-0.3161 0.3514,-0.6153 0.3514,-0.8975 0,-0.2949 -0.1059,-0.5433 -0.3175,-0.7465 -0.2117,-0.2018 -0.4883,-0.3034 -0.8283,-0.3034 -0.3599,0 -0.6477,0.1073 -0.8636,0.3217 -0.216,0.2131 -0.3246,0.5095 -0.3274,0.889l-0.762 -0.0762c0.0522,-0.57 0.2497,-1.0047 0.5912,-1.3038 0.3429,-0.2992 0.8015,-0.4488 1.3787,-0.4488 0.5814,0 1.0428,0.1609 1.3815,0.4841 0.34,0.3231 0.5094,0.7239 0.5094,1.2008 0,0.2427 -0.0494,0.4812 -0.1496,0.7155 -0.0988,0.2356 -0.2639,0.4826 -0.4939,0.7422 -0.2314,0.2582 -0.6138,0.6152 -1.1472,1.0668 -0.4473,0.3754 -0.7352,0.6294 -0.8622,0.7634 -0.127,0.1341 -0.2314,0.2681 -0.3147,0.4036l2.9761 0z"/>
  <path id="11" class="fil1 str1" d="M12.7 26.5134l0 -6.0622 1.2023 0 1.4337 4.2912c0.1326,0.3994 0.2286,0.6986 0.2892,0.8975 0.0692,-0.2201 0.1778,-0.5447 0.3246,-0.9722l1.4591 -4.2165 1.0739 0 0 6.0622 -0.7705 0 0 -5.0716 -1.7696 5.0716 -0.7224 0 -1.7498 -5.1647 0 5.1647 -0.7705 0z"/>
  <path id="12" class="fil1 str1" d="M19.6766 21.2979l0 -0.8467 0.7451 0 0 0.8467 -0.7451 0zm0 5.2155l0 -4.3942 0.7451 0 0 4.3942 -0.7451 0z"/>
  <path id="13" class="fil1 str1" d="M21.0496 26.5134l1.6044 -2.2761 -1.4859 -2.1181 0.9158 0 0.6943 1.0372c0.1284,0.1947 0.23,0.3527 0.302,0.4769 0.1256,-0.1764 0.2371,-0.3358 0.3373,-0.4784l0.7309 -1.0357 0.9102 0 -1.4944 2.1181 1.5917 2.2761 -0.9059 0 -0.9087 -1.3547 -0.2075 -0.3259 -1.174 1.6806 -0.9102 0z"/>
  <path id="14" class="fil1 str1" d="M28.7882 25.091l0.7705 0.1016c-0.12,0.4473 -0.3443,0.7959 -0.6717,1.0428 -0.3274,0.247 -0.7451,0.3711 -1.2545,0.3711 -0.6406,0 -1.1486,-0.1975 -1.524,-0.5926 -0.3754,-0.3937 -0.563,-0.9483 -0.563,-1.6609 0,-0.7366 0.1891,-1.3095 0.5686,-1.7159 0.3796,-0.4079 0.8721,-0.6111 1.4775,-0.6111 0.5856,0 1.064,0.199 1.4351,0.5984 0.3711,0.3993 0.5574,0.9609 0.5574,1.6848 0,0.0438 -0.0014,0.1101 -0.0042,0.1976l-3.2724 0c0.0282,0.4812 0.1637,0.8509 0.4092,1.1063 0.2441,0.2554 0.5503,0.3838 0.9158,0.3838 0.2724,0 0.5052,-0.0719 0.6971,-0.2159 0.1933,-0.1439 0.3457,-0.3739 0.4586,-0.69zm-2.4384 -1.1938l2.4469 0c-0.0325,-0.3697 -0.127,-0.6463 -0.2808,-0.8312 -0.2357,-0.2864 -0.5433,-0.4303 -0.9201,-0.4303 -0.3415,0 -0.6279,0.1143 -0.8608,0.3429 -0.2314,0.2286 -0.3598,0.5348 -0.3852,0.9186z"/>
  <path id="15" class="fil1 str1" d="M33.3362 26.5134l0 -0.5574c-0.2779,0.4332 -0.6872,0.6505 -1.2276,0.6505 -0.35,0 -0.6717,-0.0959 -0.9638,-0.2892 -0.2935,-0.192 -0.5207,-0.4615 -0.683,-0.8058 -0.1609,-0.3457 -0.2413,-0.7422 -0.2413,-1.191 0,-0.4374 0.0734,-0.8339 0.2187,-1.191 0.1468,-0.3556 0.3655,-0.6293 0.6576,-0.8184 0.2907,-0.1905 0.6181,-0.2851 0.9779,-0.2851 0.2653,0 0.501,0.0565 0.707,0.168 0.206,0.1115 0.3739,0.2582 0.5037,0.4374l0 -2.1802 0.7451 0 0 6.0622 -0.6943 0zm-2.3537 -2.1915c0,0.5617 0.1185,0.9808 0.357,1.2588 0.2371,0.2779 0.5179,0.4162 0.841,0.4162 0.326,0 0.6026,-0.1326 0.8312,-0.3979 0.2272,-0.2653 0.3415,-0.6703 0.3415,-1.215 0,-0.5983 -0.1157,-1.0386 -0.3486,-1.3194 -0.2314,-0.2808 -0.5178,-0.4205 -0.8579,-0.4205 -0.3316,0 -0.6082,0.1341 -0.8312,0.4036 -0.2215,0.2695 -0.333,0.6943 -0.333,1.2742z"/>
  <path id="16" class="fil1 str1" d="M37.6373 26.5134l0 -6.0622 1.2023 0 1.4337 4.2912c0.1326,0.3994 0.2286,0.6986 0.2892,0.8975 0.0692,-0.2201 0.1778,-0.5447 0.3246,-0.9722l1.4591 -4.2165 1.0739 0 0 6.0622 -0.7705 0 0 -5.0716 -1.7696 5.0716 -0.7224 0 -1.7498 -5.1647 0 5.1647 -0.7705 0z"/>
  <path id="17" class="fil1 str1" d="M47.4841 26.5134l0 -0.6533c-0.3415,0.4981 -0.8043,0.7464 -1.3899,0.7464 -0.2583,0 -0.4996,-0.0494 -0.7239,-0.1481 -0.2244,-0.1002 -0.3909,-0.2244 -0.4996,-0.374 -0.1086,-0.151 -0.1848,-0.3344 -0.2286,-0.5517 -0.0296,-0.1468 -0.0451,-0.3782 -0.0451,-0.6943l0 -2.7192 0.745 0 0 2.4313c0,0.3881 0.0156,0.6506 0.0452,0.7846 0.0466,0.1962 0.1453,0.3486 0.2977,0.46 0.151,0.1115 0.3373,0.168 0.5603,0.168 0.2229,0 0.4318,-0.0565 0.6265,-0.1708 0.1947,-0.1143 0.333,-0.2709 0.4149,-0.4671 0.0804,-0.1961 0.1213,-0.4826 0.1213,-0.8565l0 -2.3495 0.7451 0 0 4.3942 -0.6689 0z"/>
  <polygon id="18" class="fil1 str1" points="49.3059,26.5134 49.3059,20.4512 50.0509,20.4512 50.0509,26.5134 "/>
  <path id="19" class="fil1 str1" d="M52.8209 25.8488l0.1016 0.6575c-0.2088,0.0438 -0.3965,0.0664 -0.5602,0.0664 -0.2695,0 -0.4783,-0.0424 -0.6279,-0.1284 -0.1482,-0.0861 -0.2526,-0.1976 -0.3133,-0.3373 -0.0607,-0.1397 -0.0903,-0.4332 -0.0903,-0.8805l0 -2.5316 -0.5503 0 0 -0.5757 0.5503 0 0 -1.0866 0.7451 -0.4473 0 1.5339 0.745 0 0 0.5757 -0.745 0 0 2.5739c0,0.2131 0.0127,0.35 0.0395,0.4106 0.0254,0.0607 0.0677,0.1087 0.127,0.1454 0.0593,0.0353 0.1439,0.0536 0.254,0.0536 0.0818,0 0.1905,-0.0099 0.3245,-0.0296z"/>
  <path id="20" class="fil1 str1" d="M53.5561 21.2979l0 -0.8467 0.7451 0 0 0.8467 -0.7451 0zm0 5.2155l0 -4.3942 0.7451 0 0 4.3942 -0.7451 0z"/>
  <path id="21" class="fil1 str1" d="M61.4894 25.8022l0 0.7112 -4.0133 0c-0.0056,-0.1792 0.024,-0.3514 0.0875,-0.5179 0.103,-0.2723 0.2681,-0.5418 0.4953,-0.8057 0.2272,-0.2639 0.5518,-0.5687 0.9737,-0.9144 0.6562,-0.5405 1.1021,-0.9681 1.3349,-1.2841 0.2343,-0.3161 0.3514,-0.6153 0.3514,-0.8975 0,-0.2949 -0.1059,-0.5433 -0.3175,-0.7465 -0.2117,-0.2018 -0.4883,-0.3034 -0.8283,-0.3034 -0.3599,0 -0.6477,0.1073 -0.8636,0.3217 -0.216,0.2131 -0.3246,0.5095 -0.3274,0.889l-0.762 -0.0762c0.0522,-0.57 0.2497,-1.0047 0.5912,-1.3038 0.3429,-0.2992 0.8015,-0.4488 1.3787,-0.4488 0.5814,0 1.0428,0.1609 1.3815,0.4841 0.34,0.3231 0.5094,0.7239 0.5094,1.2008 0,0.2427 -0.0494,0.4812 -0.1496,0.7155 -0.0988,0.2356 -0.2639,0.4826 -0.4939,0.7422 -0.2314,0.2582 -0.6138,0.6152 -1.1472,1.0668 -0.4473,0.3754 -0.7352,0.6294 -0.8622,0.7634 -0.127,0.1341 -0.2314,0.2681 -0.3147,0.4036l2.9761 0z"/>
 </g>
</svg>
